<svg xmlns="http://www.w3.org/2000/svg" viewBox="0 0 97.08 97.08"><defs><style>.cls-1{fill:#000;stroke:#000;stroke-linecap:round;stroke-linejoin:round;stroke-width:0;}.cls-2{fill:#fff;}</style></defs><g id="Capa_2" data-name="Capa 2"><g id="Capa_1-2" data-name="Capa 1"><circle class="cls-1" cx="48.54" cy="48.54" r="48.54"/><path class="cls-2" d="M71.56,21.21s0,.05,0,.08,0,0,0,0A.08.08,0,0,1,71.56,21.21Z"/><path class="cls-2" d="M73.68,33.42s0,.08,0,.1a.07.07,0,0,0,0-.11h0S73.69,33.42,73.68,33.42Z"/><polygon class="cls-2" points="37.2 65.16 37.2 65.16 37.21 65.16 37.21 65.16 37.2 65.16"/><path class="cls-2" d="M51.38,59.59v0a0,0,0,0,1,0,0,0,0,0,0,0,0,0Z"/><polygon class="cls-2" points="46.66 63.36 46.66 63.36 46.66 63.37 46.66 63.37 46.66 63.36"/><polygon class="cls-2" points="48.39 66.56 48.39 66.56 48.39 66.56 48.39 66.56"/><path class="cls-2" d="M48.57,74.07h0Z"/><polygon class="cls-2" points="48.53 71.99 48.53 71.99 48.53 71.99 48.53 71.99"/><path class="cls-2" d="M51.44,59.62h0Z"/><path class="cls-2" d="M36.46,43.68c.4.25,1,0,1.26-.7a6.56,6.56,0,0,0,.25-3.2.08.08,0,0,1-.08,0c-.06,0,0-.05-.07-.09a.09.09,0,0,1,.12-.07,7.75,7.75,0,0,0-.21-.83c-.22-.67-.85-1-1.25-.71a1.08,1.08,0,0,0-.38,1.26,4.75,4.75,0,0,1,0,3.05A1.09,1.09,0,0,0,36.46,43.68Zm.87-4a.09.09,0,0,1,.12-.07s0,0,0,0,0,0,0,.05l0-.05a.1.1,0,0,1,.08,0h0s0,0-.06,0a.72.72,0,0,0-.11.18Zm.23.56s0,0,0-.05h0s0,.07,0,.13S37.57,40.23,37.56,40.2Zm.11.17a.11.11,0,0,1,.07.16A.11.11,0,0,1,37.67,40.37Zm-.37,1s-.09,0-.08,0,.06,0,.08,0,.09,0,.09,0S37.33,41.39,37.3,41.35Zm-.16-.47c.07,0,.07,0,.15.3L37.08,41Zm.19,1.1a.1.1,0,0,1,.05,0s0,0,0,0,0,0,0-.05A.1.1,0,0,0,37.33,42Z"/><path class="cls-2" d="M51.14,67a.66.66,0,0,0-.4-.48l0,.1c0,.09-.13.06-.17.11s-.08-.16-.15-.22-.08,0-.07,0,.06,0,.09,0l.11,0a1.18,1.18,0,0,0-.8,0,6.4,6.4,0,0,0-1.42.8s.05,0,.05,0-.05,0-.08,0a6.32,6.32,0,0,0-1.14,1h0s0,0,0,0l0,0c-.1.12-.18.25-.27.38.06.09.09.18.15.27-.11,0-.13-.07-.18-.23-.09.12-.19.24-.27.37-.36.6-.17,1.27.28,1.41a1.07,1.07,0,0,0,1.2-.52,4.71,4.71,0,0,1,.82-1,.18.18,0,0,1,0-.16c.07,0,.08.07.09.12a4.73,4.73,0,0,1,1.47-.94A1.08,1.08,0,0,0,51.14,67Zm-4.34,2h.07s0,0,0,0h-.06Zm-.06.55-.09-.19a.23.23,0,0,1,.23-.1C46.85,69.41,46.74,69.44,46.74,69.61Zm.51-.1c0,.1.08.15,0,.23s-.07,0-.11-.09h-.14a.13.13,0,0,1-.06-.07c0-.06,0-.12,0-.19l.13,0v-.19l.08,0s.07,0,.09.11Zm.48.69,0,0s0,0,0,0,0,0,0,0A.1.1,0,0,1,47.73,70.2Zm-.22-1.35s0,.09,0,.08,0-.06,0-.09a.11.11,0,0,0,0-.07c-.09,0-.09,0-.1-.13s.07.08.12.12,0,0,0,0,0,0,0,0S47.52,68.83,47.51,68.85Zm.53.64c0-.08.09-.1.15-.07S48.13,69.51,48,69.49Zm.25-.42h0V69l0,0Zm.21-.36a.1.1,0,0,0,0,0,.08.08,0,0,1,0,0l0,0S48.51,68.7,48.5,68.71Zm.09-.22-.15-.07c0-.06,0-.11.06-.17l.14.13C48.7,68.43,48.7,68.43,48.59,68.49Zm.59-.79s0,0,0,0,0,0,0,0l-.05,0Zm-.53.49,0,0v-.06l0,0S48.65,68.17,48.65,68.19Zm-.23-.48c0-.1,0-.1.14-.08S48.48,67.73,48.42,67.71Zm.33-.07,0,0-.06,0s0,0,0,0,.1-.08.16-.06S48.76,67.61,48.75,67.64Zm.6.45a.11.11,0,0,1-.09-.12v0c.07.06.17,0,.25,0S49.39,68,49.35,68.09Zm.56,0,0,0v-.06h0Zm.14.12,0,0v-.06l0,0Zm-.21-.53a.38.38,0,0,1-.11-.11.25.25,0,0,1,0-.12h0a.09.09,0,0,1,.07.05A.58.58,0,0,1,49.84,67.72Zm-.09-.63,0,0s0,0,0,0,.07-.06.13,0S49.79,67.08,49.75,67.09ZM50,66.6a.1.1,0,0,1-.16.06h0l.06-.15C49.94,66.49,49.93,66.56,50,66.6Zm.18.33,0,0v-.06s0,0,0,0S50.14,66.91,50.14,66.93Z"/><path class="cls-2" d="M57.74,45.79a1.07,1.07,0,0,0,1.2-.52,4.86,4.86,0,0,1,1.78-1.71h0a.1.1,0,0,1,.12-.05,3.48,3.48,0,0,1,.43-.22h0c0-.05,0-.09,0-.13s.06,0,.09-.07l.05-.11.12,0a.07.07,0,0,1,0-.11s0-.09,0-.09,0,.06,0,.09a.08.08,0,0,1-.05.11l.07.16a1,1,0,0,0,.38-.89.45.45,0,0,0-.06-.12h0a1,1,0,0,0-1.29-.38,6.49,6.49,0,0,0-3.18,2.69C57.11,45,57.29,45.65,57.74,45.79Zm3.55-3.85,0,0,0,0,0,0ZM61.11,43s0-.09,0-.08,0,.06,0,.08,0,.09,0,.09S61.08,43,61.11,43ZM60,43.54h0l0-.05h0Zm.45-.1a.59.59,0,0,1,0-.08h0l.14.06c0,.07,0,.07-.19.11A.14.14,0,0,1,60.45,43.44Zm-1-1,.18,0c0,.11-.1.08-.14.13s0,.09,0,.08,0-.06,0-.09-.08,0-.11-.09S59.4,42.43,59.44,42.42Zm0,1.56h.06v0h-.07S59.44,44,59.45,44Zm-.88-.19c.06,0,.06.06.08.1l0,0s0,0,0,0S58.52,43.85,58.57,43.79Z"/><path class="cls-2" d="M44.53,40.37h0l0,.75h0s0,0,0,0l0,0h0l0,.34.15.38s0,0,0,0-.09-.06-.13-.17l.1,1.68a.53.53,0,0,0,0-.12.11.11,0,0,1,.09.12.09.09,0,0,1-.12,0L45,49.21h0s0,0,0,0,0,0,0,0a.11.11,0,0,1-.08,0l.37,6.65a.24.24,0,0,0,.08.18.28.28,0,0,0,.2.09h.1c-.08-.09-.08-.09,0-.17s0-.1,0-.09,0,.06,0,.09.07.1,0,.17l5.43.16a.27.27,0,0,0,.2-.08.33.33,0,0,0,.1-.18L51.85,53s-.06,0-.09-.11l.11-.13h0l.31-2.82a.09.09,0,0,1-.1,0c0-.06.06-.06.1-.08h0l.16-1.43s-.05,0-.08,0,0-.08.09-.08l.06-.52-.08,0-.05,0,.05-.06,0,0,0,.05.31-2.85h0a.58.58,0,0,1-.05-.18.19.19,0,0,1,.06.07l.33-3,0,.06a.65.65,0,0,1-.35-.1c0-.06.06-.06.09-.08s.1.07.22,0l.06-.2h0l.47-4.32h-.06l0,0h.05L53.71,36c0-.08-1.66-.19-1.72-.24a.29.29,0,0,0-.19-.08l-1.28,0c.07.08.07.09,0,.17s0,.09,0,.08,0-.06,0-.09-.06-.1,0-.16l-.79,0,0,0a.11.11,0,0,1,0,.12l-.15-.06a.93.93,0,0,0-.05-.1l-3.27-.09a.24.24,0,0,0-.16,0h0s0,0,0,0h-.06v0h0a2,2,0,0,1-.45,0,.1.1,0,0,1,0,.09s-.07.07-.16,0l.11-.13-.37,0,.15.06c0,.06.08.12.07.19s0,.06,0,0l-.11-.11c-.12.07,0,.19-.08.31a.62.62,0,0,1-.15-.29c0-.07.14-.09.15-.18a4.43,4.43,0,0,0-1,.08l.26,4.62,0,0S44.53,40.36,44.53,40.37ZM53,36.52H53l0,0H53Zm-1.17.65c-.08,0-.1-.08-.07-.15S51.83,37.1,51.8,37.17Zm-.28-1.52c.1,0,.07.09.12.13h0l0,0c0,.09-.06,0-.09,0S51.53,35.77,51.52,35.65Zm-.18.76.06-.16.14-.07a.25.25,0,0,1,.21.1s0,0,0,0-.1.26-.16.39l-.1,0A2.53,2.53,0,0,1,51.34,36.41Zm1.35,3.68s0-.09,0-.08,0,.06,0,.09.07.1,0,.17C52.63,40.17,52.63,40.17,52.69,40.09Zm.23.78.06-.15c.08,0,.07.05.09.08s-.08.1-.15.07Zm-2-4.54s.09,0,.08,0-.06,0-.08,0-.09,0-.09,0S50.92,36.3,51,36.33Zm1.51,3.78h.06l0,0h-.06Zm-.12,7.3s0,0,0,.05,0,0,0,0,0-.07,0-.13S52.32,47.38,52.34,47.41ZM50.87,44c.06,0,.06.05.08.09l0,0,0,0S50.82,44,50.87,44Zm1.25,2.84,0,0s0,0,0,0,0,0,0,0Zm-.87-3,0,0v-.06l0,0S51.25,43.78,51.25,43.8ZM51.11,42A.13.13,0,0,1,51,42L51,41.93l.08-.06a.08.08,0,0,1,.08,0Zm-1.56-3.58.2.15a.09.09,0,0,1-.12.07A.21.21,0,0,1,49.55,38.38Zm2.92,4.35h-.06v0h.07S52.48,42.73,52.47,42.73Zm-.73-1.66s0,0,0,0l0,0,0,0Zm.84.63s0,0,0-.05a.1.1,0,0,0,0,0l.05,0Zm-.38-1.28c0-.05.06-.05.12-.09l0,.13c0,.06-.06.06-.09.08A.11.11,0,0,1,52.2,40.42Zm.46.86,0,0s0,0,0,0h0ZM51.17,37.6c-.08,0-.08,0-.12-.24C51.15,37.45,51.18,37.52,51.17,37.6Zm-.88-1.89h0l0,.05h0Zm0,.25.2,0c0,.08-.06.08-.1.11l-.1-.05s0,0,0,0S50.33,36,50.33,36ZM51,38c.09,0,.09.06.07.15S51,38,51,38ZM50,35.8h0s0,0,0,.07h0l0,0Zm2.52,6.25s-.05,0-.07,0l0,0h.06Zm-1-2.37c-.14-.11-.13-.22-.19-.31S51.47,39.34,51.57,39.68Zm-1.45-3.46.05,0s0,0,0,0-.07.05-.13,0S50.09,36.24,50.12,36.22ZM51.59,40h.06s0,0,0,0h-.06Zm-1.1-2.48,0,0s0,0,0,0l-.05,0Zm1.27,3.21a.37.37,0,0,1,0,.21l-.08,0a.11.11,0,0,1-.08-.12C51.61,40.78,51.7,40.81,51.76,40.74Zm-1.79-4,0,0v.06l0,0Zm.07.16q.12,0,.06.15C50,37,50,37,50,36.9Zm.38,1s0-.09,0-.08,0,.06,0,.09,0,.09,0,.08S50.38,38,50.42,37.92Zm.14.87c.06,0,.06.06.07.1s0,0,0,0l0,0S50.51,38.85,50.56,38.79Zm-.28-.44,0,0s0,0,0,0l-.05,0Zm.28.8s0-.09,0-.09,0,.06,0,.09l0,.08c.06,0,.1,0,.23,0l.16-.06c.06,0,.08.06.07.13s-.17,0-.25,0l-.09.12c-.09,0-.06-.16-.13-.2s-.06,0-.07,0S50.54,39.17,50.56,39.15Zm.61,1.9s0,0,0,0h0s0,.07,0,.13S51.18,41.08,51.17,41.05Zm-.39-.71s0-.09,0-.09,0,.06,0,.09,0,.09,0,.08S50.74,40.36,50.78,40.34Zm.84,2.48s0-.09,0-.08,0,.06,0,.08,0,.09,0,.09S51.59,42.85,51.62,42.82ZM49.14,37a.18.18,0,0,1-.24.1A.19.19,0,0,1,49.14,37ZM52,44.93a.09.09,0,0,1,0,0h0s0,.07,0,.13S52,45,52,44.93ZM50,40.65a.11.11,0,0,1-.07-.16A.11.11,0,0,1,50,40.65Zm-.3-.62s.09,0,.09,0-.07,0-.09,0-.09,0-.09,0S49.72,40,49.74,40Zm1.14,3s0,0,0,0,0,0,0,0,0,.07,0,.13S50.89,43,50.88,43Zm-3-6.85,0,.05,0,.22h-.11Zm.71,2.33s0-.09,0-.08,0,.06,0,.08,0,.09,0,.09S48.6,38.51,48.64,38.48Zm.33,1s0,0,.05-.06a.22.22,0,0,1,.08,0c0,.06-.05.11,0,.18a.12.12,0,0,1,0,.15A.5.5,0,0,1,49,39.48ZM50.29,43l0,0s0,0,0,0l0,0ZM47.44,47.1c-.08,0-.12,0-.19,0a.12.12,0,0,1,.17-.07ZM48.69,50h.06l0,0h-.06S48.68,50,48.69,50Zm-.94-1.64,0,0s0,0,0,0l-.05,0Zm-2.92-6.84,0,0v0h0a.1.1,0,0,1,0,0S44.82,41.54,44.83,41.52Zm.34,1s0,0,0,0,0,0,0,0h0l-.05,0A.08.08,0,0,1,45.17,42.57Zm2.6,6.6s0,.1,0,.09,0-.06,0-.09-.07-.1,0-.17C47.83,49.09,47.83,49.09,47.77,49.17Zm.75,2h0l0,0,0,0Zm.74,1.69v0l0,0v0A.1.1,0,0,1,49.26,52.82ZM50.35,55c0,.1-.06.1-.15.08S50.29,55,50.35,55Zm-2-4.51s0,0,0,.05,0,0,0,0a.1.1,0,0,1,0,0S48.35,50.5,48.35,50.48Zm-.11-.19,0,0,0,0s0,0,0,0Zm0-.19,0,0,0,0a.08.08,0,0,1,0,0ZM48,49.53l-.14-.13s0,0,.1,0S48.08,49.44,48,49.53Zm-3.11-7.12h0l0,0h0Zm2.34,5.69c.08,0,.1.08.07.15A.1.1,0,0,1,47.27,48.1ZM46,45.78c.08,0,.1.08.06.15S46,45.85,46,45.78Zm.29.69a.12.12,0,0,1,.07.15C46.3,46.62,46.31,46.56,46.33,46.47Zm.81,2.28c-.06.1-.15.1-.22.13s-.1.07-.16,0a.11.11,0,0,1,0-.14l.08,0,.11,0C47,48.78,47.05,48.7,47.14,48.75Zm1,2.73c-.06,0-.06,0-.07-.09s0,0,0,0l0,0S48.17,51.43,48.12,51.48Zm-.3-.18v0h-.06s0,0,0,0Zm-.08-.1-.18-.08.1-.15A.18.18,0,0,1,47.74,51.2Zm-2.51-6.47a.11.11,0,0,1,.09.13.1.1,0,0,1-.13,0C45.16,44.84,45.24,44.8,45.23,44.73Zm.46,1a.19.19,0,0,1-.24.1A.18.18,0,0,1,45.69,45.69ZM47,49.51c-.08,0-.1-.08-.07-.15S47,49.44,47,49.51Zm-.63-1a.09.09,0,0,1,.06-.07.1.1,0,0,1,.09,0h0l-.06.15C46.33,48.65,46.34,48.58,46.32,48.54Zm1.42,3.58h.06s0,0,0,0h-.07Zm-1.51-3.23.05,0v0l-.05,0Zm1.46,3.52c.07.05.15,0,.23,0l0,.09c0,.06,0,.07,0,0s-.15,0-.22,0A.1.1,0,0,1,47.69,52.41Zm.54,1s0,0,0,0l0,0,0,0h0S48.22,53.41,48.23,53.43Zm.08.59a.09.09,0,0,1,0,0s0,0,0,0-.06-.07,0-.12S48.3,54,48.31,54ZM45,46.2a.1.1,0,0,1,0,0,.1.1,0,0,0,0,0h0a.1.1,0,0,1-.05,0Zm1.89,4.65,0,0s0,0,0,0,0,0-.05,0l0,0ZM45.5,48a.1.1,0,0,1,.08.06.18.18,0,0,1,0,.1h0l-.15-.07C45.39,48,45.46,48,45.5,48Zm1.16,2.5,0,.12-.17,0c-.05-.08-.05-.11,0-.15S46.57,50.55,46.66,50.51Zm-.59-.58a.09.09,0,0,1,.11-.09c.06,0,0,.06.07.1s-.08.1-.15.06Zm-1-2s.07,0,.13,0-.06.07-.09.08a.09.09,0,0,1,0,0S45.12,48,45.12,48Zm.72,3,0,0,0,0,0,.05ZM47,53.87c-.08,0-.1-.08-.07-.15S47.05,53.8,47,53.87Zm-1.4-3.68c0,.1-.06.09-.15.07S45.55,50.17,45.62,50.19ZM46.46,54v0h-.07l0,0Zm-1.28-2.79s0,0,0,0l0,.05,0,0Zm.61,2.12,0,0,0,0h0A.1.1,0,0,1,45.79,53.3Zm.08.23s0,0,0,0,0,0,0,0-.07.06-.13,0S45.83,53.54,45.87,53.53Zm.39,1.06a.17.17,0,0,1,0,.12h0s-.06,0-.07-.05a.58.58,0,0,1-.05-.18C46.21,54.52,46.25,54.55,46.26,54.59Zm-.41-.23,0,0s0,0,0,0h0l-.05,0Zm.06.15c.08,0,.1.08.07.15S45.89,54.6,45.91,54.51Zm0,.54h0s0,0,0,.06h0Zm-.45.13a.09.09,0,0,1,0,0s0,0,0,0-.06-.07,0-.13S45.49,55.15,45.5,55.18Zm.33.46,0,0,0,0,0,0S45.84,55.63,45.83,55.64Zm.42-.16s-.06.07-.09.11,0,0,0-.05a.22.22,0,0,1,0-.09l.2-.08s0,0,0,0,.05-.13,0-.21l.19.06c-.06.1-.15.11-.22.14v0C46.34,55.42,46.29,55.44,46.25,55.48Zm.67.61h0a.1.1,0,0,1,0,0l0,0Zm-.79-1.94a.18.18,0,0,1-.1-.23A.18.18,0,0,1,46.13,54.15Zm.55.4c-.08,0-.12,0-.18,0s.08-.11.16-.07ZM46,52.35s0,0,0,0l0-.05,0,0Zm.8,1.7,0,0s0,0,0,0l0,0A.08.08,0,0,1,46.81,54.05Zm-1-2.31-.05,0s0,0,0,0,.07,0,.13,0S45.8,51.72,45.77,51.74Zm-.46-1.8h0l0,0,0,0ZM47.39,55l0,0,0,0,0,0S47.4,55,47.39,55Zm-.18-.81a.18.18,0,0,1-.07.09s.07.11,0,.17c-.08-.09-.08-.09,0-.17h0l0-.12.07-.15s.06,0,.07.06A.25.25,0,0,1,47.21,54.19ZM46.3,51.7c-.08,0-.1-.08-.07-.15A.1.1,0,0,1,46.3,51.7Zm2.11,4.43c-.08,0-.09-.06-.1-.23,0,0,.07-.06.12,0l0,.1.09,0C48.51,56.11,48.45,56.11,48.41,56.13Zm-.15-.57a.44.44,0,0,1-.14-.33l.2.17Zm-.72-2s0,0,0,0,0-.06,0-.09,0-.09.13-.1-.09.07-.13.12S47.55,53.52,47.54,53.53Zm0-.6c.08,0,.1.08.06.15S47.5,53,47.54,52.93Zm1.32,3.19h0s0,0,0,0,0,0,0,0a.1.1,0,0,1,.05,0Zm-.12-.31a.07.07,0,0,1-.05,0s0,0,0,0,.07-.06.13,0S48.77,55.8,48.74,55.81Zm-.68-2.08c.06,0,.06.05.07.09s0,0,0,0l0,0S48,53.78,48.06,53.73Zm.31.77h0l0,0s0,0,0,0l0,0A.08.08,0,0,1,48.37,54.5Zm.7,1.45a.11.11,0,0,1-.07-.16A.11.11,0,0,1,49.07,56Zm.43.36c-.1,0-.09-.06-.07-.15S49.52,56.24,49.5,56.31Zm-.21-1.21-.11.1s0,.08-.07.09,0,.05,0,.08a.19.19,0,0,1,0,.08.21.21,0,0,1-.19-.1c-.1,0-.1,0-.11-.13s.07.09.12.13l.14-.06c0-.07-.13-.06-.15-.12s0,0,0-.08h0l.13,0c.08,0,.08-.08.11-.13S49.29,55,49.29,55.1Zm-.5-.75.14-.09s.06.06.06.09a.08.08,0,0,1,0,.08h0ZM48.22,52c-.06,0-.11,0-.16,0l-.15.06c0-.14,0-.29-.16-.34l.07-.17a.13.13,0,0,1,.08.08.25.25,0,0,0,0,.09l.06,0s.08,0,.12,0a.12.12,0,0,0,.07,0,.13.13,0,0,0,0-.06c0-.06-.08-.11,0-.19l.25.16-.13.22c0,.11.07.15,0,.19S48.25,52.08,48.22,52Zm.94,2c-.08-.1-.08-.1,0-.18s0-.09,0-.08,0,.06,0,.09S49.21,53.92,49.16,54Zm1.19,1.91s0,0,0,.05-.06,0-.22.07a.47.47,0,0,1,.11-.1.25.25,0,0,1,.12,0Zm-1.74-4.15h0l0,0v0l0,0Zm-1-2.42h0v-.07l0,0A.13.13,0,0,1,47.6,49.33Zm-2.52-6.08c-.08,0-.1-.08-.06-.16A.1.1,0,0,1,45.08,43.25ZM50.34,55.6s0,.1,0,.09,0-.06,0-.09-.08-.05-.12-.08,0-.09,0-.15,0-.09,0-.09,0,.07,0,.09.08.05.12.08S50.39,55.54,50.34,55.6Zm.27.34c-.09,0,0-.06,0-.09s0-.09,0-.08,0,.06,0,.08S50.63,55.94,50.61,55.94Zm.22.29a.11.11,0,0,1-.07-.16A.11.11,0,0,1,50.83,56.23ZM47,47.1a.1.1,0,0,1-.06-.16C47.06,47,47.08,47,47,47.1Zm3,7.11,0,0a.21.21,0,0,0,.24,0c0,.08,0,.13,0,.17s0,.08,0,.12l-.17-.07Zm.77,1.26s0,0,0,0l0,0,0,0Zm0,.37h0s0-.07,0-.13.06.06.07.09A.09.09,0,0,1,50.83,55.84Zm.21.28h0l0,0h0A.1.1,0,0,1,51,56.12Zm.05-.24,0,0c-.06,0-.05-.06-.07-.09s.07-.1.16-.06Zm-2-5.23,0,0v-.06l0,0S49.06,50.63,49.06,50.65Zm-.48-1.17a.11.11,0,0,1-.07-.16A.11.11,0,0,1,48.58,49.48ZM47.52,47s0,0,0,0h.06l0,0Zm3.17,7.32,0,0v-.06l0,0S50.69,54.34,50.69,54.36Zm-.07-1.06,0,0v-.06h0Zm-.8-1.88,0,0,0,0,0,0ZM51,53.78l-.08,0h0a.09.09,0,0,1-.06,0,.11.11,0,0,1,0-.08s.06,0,.08-.08a.16.16,0,0,0,.06-.12C51.12,53.62,51,53.69,51,53.78Zm-.76-1.55v-.06l0,0a.13.13,0,0,1,0,.06Zm-2-5.54,0,0v0l0,0Zm3.1,7.3c-.09-.06.07-.15,0-.21l0-.05,0,.06a.88.88,0,0,1,.07.14Zm-.58-2-.05.11,0,0s0-.06-.07-.09A.11.11,0,0,1,50.77,52Zm-4.08-9.83,0-.08a.11.11,0,0,1,.11-.08c.06,0,.06.06.08.09A.11.11,0,0,1,46.69,42.17Zm2,5.23c-.07,0-.07-.06-.08-.09a.09.09,0,0,1,0-.05s0,0,0,0S48.77,47.34,48.72,47.4ZM51,52.49c-.07,0-.09-.08-.06-.16A.1.1,0,0,1,51,52.49Zm-2.77-7.18c-.1,0-.1-.05-.08-.15C48.24,45.21,48.26,45.25,48.24,45.31Zm-.75-1.88s0-.09,0-.08,0,.06,0,.09,0,.09,0,.08S47.46,43.46,47.49,43.43ZM47,42.15l0,0,0,0s.06.07,0,.12S47,42.19,47,42.15Zm4.19,10,0,0s0,0,0,0,.07,0,.13,0S51.19,52.14,51.15,52.16Zm-2.69-6.93,0,0s0,0,0,0l0,0A.08.08,0,0,1,48.46,45.23Zm.44.82h0a.1.1,0,0,1,0,0,.1.1,0,0,0,0,0,.1.1,0,0,1,0,0ZM51,50.92H51v0H51S51,50.92,51,50.92Zm-.15-1.66,0,0v0l.05,0ZM48.5,43.57l0,0v0a.1.1,0,0,1,.05,0Zm2.41,5.11h-.06l0,0h.06S50.92,48.67,50.91,48.68Zm.85.3a.1.1,0,0,1,0,0,.1.1,0,0,0,0,0,.1.1,0,0,1,.05,0Zm-.14-.62-.15.29-.07,0s0,.1,0,.09,0-.06,0-.09l0,0c.06-.13.11-.26.16-.38S51.61,48.28,51.62,48.36Zm-2-3.79h0s.06,0,.07.06a.58.58,0,0,1,0,.18A.25.25,0,0,1,49.64,44.57ZM51.35,48s0,0,0,0l0,0,0,0Zm-.21-.31h-.07l0,0h.06A.1.1,0,0,1,51.14,47.67Zm-.36-1a.17.17,0,0,1,.11.2C50.77,46.84,50.82,46.73,50.78,46.67Zm-.71-1.74c-.07,0-.09-.08-.06-.16S50.11,44.85,50.07,44.93ZM50.89,47q0,.12-.15.06C50.76,47,50.82,47,50.89,47Zm-1.32-3.67a.5.5,0,0,0,0,.13l.06.15-.07.16c-.07,0-.08-.05-.08-.1a.21.21,0,0,1,0-.11.13.13,0,0,0-.12-.1.16.16,0,0,1,0-.12l0-.1a.57.57,0,0,0,0-.14.15.15,0,0,0-.11-.07c0-.08.05-.08.09-.09a.1.1,0,0,1,.07.07.36.36,0,0,0,0,.09l.12.08A.19.19,0,0,1,49.57,43.34Zm-.32-1.27,0,0s0,0,0,0a.1.1,0,0,1,.05,0Zm-2.31-6.52h0l0,0,0,0ZM52,47.8s0,0,0,0l0,0,0,0Zm-1.89-4.08a.1.1,0,0,1,.05,0s0,0,0,0h0l0,0S50.12,43.73,50.12,43.72Zm-1.76-3.38s.08,0,.12,0,.08,0,.12,0l0,.07c0,.07-.09.06-.11.11a.16.16,0,0,1-.11.12c-.07,0-.07-.07-.1-.1a.53.53,0,0,0-.1-.06A.63.63,0,0,0,48.36,40.34Zm-1.79-3.66c.07,0,.1.09.07.15S46.55,36.77,46.57,36.68Zm-.47-.9,0,0v0l0,0ZM48,40.65l0,.05,0,0s0,0,0,0S48,40.67,48,40.65Zm.53,1.06a.23.23,0,0,1,.11.22c-.07,0-.12,0-.18,0ZM49,43.13l0,0s0,0,0,0l0,0Zm-3-6.85c.06,0,.06,0,.07.09s0,0,0,.05l0,0S46,36.34,46,36.28Zm3.42,8.26c.08,0,.1.08.06.16A.1.1,0,0,1,49.46,44.54Zm.35.86a.11.11,0,0,1,.07.16A.11.11,0,0,1,49.81,45.4Zm1.66,4.34c-.09,0-.09,0-.1-.13s.07.09.12.13h0l0,0C51.52,49.84,51.5,49.78,51.47,49.74Zm-1.32-3,0,0h.06s0,0,0,0ZM45.82,36l0,0v.06l0,0Zm5.4,13,.05,0v0l0,0Zm-2.13-4.89h0s0,0,.05,0h0Zm-.19-.57,0,0-.05,0,0,0ZM47.22,40.1c.07-.06.11,0,.17,0a.13.13,0,0,1,0-.06l0,0c.07,0,0,.05,0,.08a.23.23,0,0,1,0,.1.08.08,0,0,1-.07,0A.11.11,0,0,1,47.22,40.1Zm2.41,5.44,0,0,0,0,0,0Zm-.93-2s0,0,0,.06l0,0V43.5Zm1.6,4s0-.07,0-.1h0c0-.05-.07-.1,0-.17.08.09.08.1,0,.17h0a.07.07,0,0,0-.05.11s0,.1,0,.09S50.27,47.6,50.3,47.57ZM47,39.71c.09.06-.07.15,0,.21l0,0s0,0,0-.06a1.13,1.13,0,0,1-.06-.14Zm.53,1.71,0,0,0,0h0A.1.1,0,0,1,47.54,41.42ZM49.4,46.2l0,0,0,0s0,0,0,0Zm-1.47-3.58,0,0s0,0,0,0h0l-.05,0Zm-1-2.22H47s0,0,0,0,0,0-.06,0ZM48,42.85s0,0,0,0a.1.1,0,0,1-.05,0s0,0,0,0Zm2.41,5.9h.06s0,0,0,0h-.06Zm1,2.6h0l0,0h0A.1.1,0,0,1,51.38,51.35ZM46.24,39.2l0,0,0,0-.05,0ZM45.1,36.67c.07,0,.07,0,.08.09s0,0,0,.05l0,0S45.05,36.72,45.1,36.67Zm1.48,3.59.06,0c0,.06,0,.12.08.19h.06s0,0,0,0-.06,0-.08,0l-.16.05ZM45.07,37h0l0,0s0,0,0,0l-.05,0Zm.07.44h.07l0,0h-.06Zm-.62-1a1,1,0,0,0,0-.12.24.24,0,0,1,.13.24h0C44.56,36.54,44.54,36.54,44.52,36.45Zm1.85,4.25c.09,0,.17,0,.21.09s.1,0,.11.14-.07-.09-.12-.13l-.21.08-.07-.11Zm-2-4.55,0,0s0,0,0,0l0,0Zm.84,2.16c0,.08-.07.1-.15.07l0-.11L45,38.22c0-.07-.07-.12-.05-.21l.22.16Zm-.61-1.16c.08,0,.1.08.06.16S44.53,37.23,44.57,37.15Zm2.41,6,0,0s0,0,0,0h0l0,0S47,43.2,47,43.19Zm.41,1.51s0,0,0,0l0,0s0-.09,0-.08,0,.06,0,.09a.76.76,0,0,0,0,.11l.11.05c0,.06-.06.07-.11.08h0A1.34,1.34,0,0,1,47.39,44.7Zm.14.59s0-.07,0-.09a.19.19,0,0,1,.08-.07l.1-.22c.09,0,.08.11.12.17s0,.08,0,.13v.07a.07.07,0,0,1,0,.06h0a.11.11,0,0,1-.12,0l-.1-.05Zm-1.48-3.45a.1.1,0,0,1,.05,0l0,0,0-.05S46.05,41.85,46.05,41.84Zm-.88-1.72s0,0,0,0l0,0,0,0Zm3.75,9.09.22.17s0,.12-.11.19,0,.09,0,.08,0-.06,0-.09A1.23,1.23,0,0,1,48.92,49.21ZM46.59,43.9l.07,0,.08.21c0,.06-.06.07-.12.06s0-.06,0-.1l-.05,0C46.52,44,46.52,44,46.59,43.9Zm1.68,4a.09.09,0,0,1,0,0s0,0,0,0-.07.06-.13,0S48.24,47.88,48.27,47.87Zm3,7.8.13-.07s0-.09,0-.08,0,.06,0,.09a.22.22,0,0,1-.07.2C51.31,55.78,51.3,55.74,51.31,55.67ZM46.25,44s.1-.07.17,0c-.1.08-.1.08-.18,0s-.09,0-.08,0S46.22,43.92,46.25,44Zm.31.87c.08,0,.1.09.07.15S46.54,44.91,46.56,44.82Zm.39,1.4a.1.1,0,0,1-.06-.16C47,46.09,47,46.14,47,46.22Z"/><path class="cls-2" d="M50.35,47.46h0c0,.05,0,.09,0,.1A.07.07,0,0,1,50.35,47.46Z"/><path class="cls-2" d="M50.93,59.44a.05.05,0,0,1,0,0,1.17,1.17,0,0,1,0-.11c0-.11.13-.12.16-.21a.25.25,0,0,1,.08.12s0,.09,0,.13.06,0,.09,0,.07,0,.1,0l0,.11,0,.07v0s0,0,0,0l0-1s0,0-.09,0l-.2,0-2.52-.07.12.3c.06,0,.1-.06.17,0l0,.1s.17,0,.12.17a.14.14,0,0,1-.09,0l-.08,0-.08-.19-.08,0s0,.09,0,.08,0-.06,0-.08-.18-.08-.24-.14,0-.12.06-.16,0,0,0,0l-2.91-.08h-.2q-.09,0-.09,0l0,3,.09,0,.2,0h.08v0s0,0,0,0h0a.14.14,0,0,1,0,.06l5.37.16h.2l.08,0v-.24s0,0,0,0,0,0,0,0h0l0-1.58C51.14,59.44,51.14,59.44,50.93,59.44Zm-.16-.89h.06l0,0h-.06S50.76,58.55,50.77,58.55Zm-5.41.58,0,0s0,0,0,0l0,0Zm.41,1.57c-.05,0-.08,0-.11-.05s-.09,0-.1-.13.07.09.12.13.07,0,.1.05.09,0,.08,0S45.8,60.73,45.77,60.7Zm-.21-.81c0,.12.11.2.06.32a.19.19,0,0,1-.1-.12.59.59,0,0,0-.06-.14l-.09,0,0-.11-.11-.06a.1.1,0,0,1,0,0,.15.15,0,0,1,.18,0c.05,0,.11,0,.16,0Zm.92,1.32h0l0-.05h0Zm-.21-.85.07.15a.11.11,0,0,1-.12.08c-.06-.05-.1-.13-.18-.14l.06-.16.18-.07C46.35,60.28,46.26,60.31,46.27,60.36Zm-.5-1.14a.56.56,0,0,1-.26.11s0,0,0-.06.06,0,.07,0a1.63,1.63,0,0,0,.11-.23l.16.07Zm.33-.4c.07,0,.1,0,.11.07a.06.06,0,0,1-.05.09s0,.09,0,.09,0-.06,0-.09l-.06-.16s-.1,0-.09,0S46.07,58.79,46.1,58.82Zm.29.48,0,.05,0,0,0,0Zm0,.49c.1,0,.09.06.07.15S46.41,59.85,46.44,59.79ZM47.26,61s0,.06,0,.07a.58.58,0,0,1-.19,0,.35.35,0,0,1,.12-.1.2.2,0,0,1,.11,0Zm-.11-.3c0,.06,0,.05-.06,0s-.21-.21-.37-.22-.06-.08,0-.11l.41.18Zm.18-.58h0v-.07l0,0S47.33,60.12,47.33,60.14Zm-.07-.61,0,0,0,0,0,0S47.26,59.52,47.26,59.53ZM47.2,59h0l0,0h0A.1.1,0,0,1,47.2,59Zm.6.62a.52.52,0,0,1,.28-.13c.06.05.07.09,0,.15l-.11,0C47.94,59.58,47.89,59.7,47.8,59.61Zm1,1.74s-.07,0-.12,0,0-.06.09-.08l.05,0A.08.08,0,0,1,48.83,61.35Zm-.23-.75h0l0-.05,0,0Zm.36.61,0,0v-.06h0Zm-.5-1.31c0-.08.08-.1.16-.06A.1.1,0,0,1,48.46,59.9Zm-.18-.66,0,0s0,0,0,0l0,0Zm-.19-.34H48c.08-.07,0-.17.06-.24s.06.12.12.2Zm1.59.08s0,0,0,.05a.1.1,0,0,0,0,0h0a.1.1,0,0,1,0,0S49.68,59,49.68,59Zm-.31,1.23c-.06,0-.08-.05-.08-.12s.08-.06.1-.1,0-.1.12-.11.06,0,.08.12l-.13.17Zm.36.22c-.07,0-.09-.08-.07-.15S49.76,60.34,49.73,60.43Zm-.35-.87s0,0-.05,0v0s.07-.05.13,0S49.41,59.55,49.38,59.56Zm1,1.52,0,0V61s0,0,0,0ZM50,60.31l-.15-.13a.13.13,0,0,1,.11,0S50.08,60.22,50,60.31Zm-.25-.64h0l-.15-.06c0-.08,0-.07.08-.09a.12.12,0,0,1,.08.06A.15.15,0,0,1,49.79,59.67Zm-.32-.87s0,.09,0,.08,0-.06,0-.08-.11-.15,0-.25.08.1.1.16A.06.06,0,0,1,49.47,58.8Zm.6.86a.1.1,0,0,1,.06.13c-.07,0-.12,0-.18,0A.11.11,0,0,1,50.07,59.66Zm.21.54c-.09,0-.1-.12-.15-.22s-.08,0-.07,0,0,0,0,0h0a.31.31,0,0,1,.16.13A.21.21,0,0,1,50.28,60.2ZM49.87,59l0,0v-.06l0,0S49.87,59,49.87,59Zm.6.89a.14.14,0,0,1,.06-.07.12.12,0,0,1,.1,0h0l-.07.15C50.49,60,50.49,59.93,50.47,59.89Zm.11.36.11.06,0,0c0,.06,0,.06-.09.08S50.54,60.34,50.58,60.25Zm.16.5-.05-.13c0-.09.12-.07.17-.11s0-.15,0-.24.07-.07.14-.05l0,.13.1.23C51,60.68,50.86,60.68,50.74,60.75Zm.56.07c0,.08,0,.17,0,.24s-.06-.12-.11-.16a.09.09,0,0,1,.11-.09h0S51.31,60.8,51.3,60.82Z"/><path class="cls-2" d="M51.38,59.61v0s0,0,0,0Z"/><path class="cls-2" d="M28.32,45.48a.09.09,0,0,1,.12-.07c.08,0,.06.13.07.24l-.17-.12,1.56,3.32c.06-.1.17-.11.27-.14s0,.09.1.13.08,0,.1,0,.1,0,.11.13-.07-.09-.13-.14-.07,0-.09,0-.1,0-.15,0a.38.38,0,0,0-.05.3A.25.25,0,0,1,30,49l.47,1a.06.06,0,0,1,.06,0,.09.09,0,0,1,.09.11s0,0,0,0l0,0L32.77,55s0,.08.09.11h0s0,0,0,0-.06,0-.09,0h0l3.78,8.06a.09.09,0,0,1,.06.12l4.68,10s0,0,0,0a.64.64,0,0,1,.06.18h0l.48,1h0l.14.12,0,.11h0l.75,1.6a6,6,0,0,0,5.32,3.65,5.37,5.37,0,0,0,1.33-.14.07.07,0,0,1,0-.05s0-.09,0-.09,0,.06,0,.09a.06.06,0,0,1,0,0,5.66,5.66,0,0,0,1.37-.51s0,0,0-.09a.08.08,0,0,1,.08.06,6.42,6.42,0,0,0,2.65-2.73l.4-.77,0,0,0,0h0l0,0,.37-.71a.1.1,0,0,0-.05,0l-.07-.14c0-.07.06-.07.06-.07l.14,0,2.89-5.53,0,0s-.07,0-.08,0,0,0,0,0,0-.1.13-.11-.08.07-.12.12l0,.06h0l4.2-8.06a.15.15,0,0,1,0-.11l0,0,2.23-4.27a.1.1,0,0,1-.14,0,.1.1,0,0,1,.15-.06l.34-.64,0,0v-.06l0,0v0l.83-1.6v-.11l.08,0,2.63-5s0,0,0-.06h0l2.08-4v0h0l1.52-2.92,0,0s0,0,0,0l0,0v0l3.52-6.74h0v0A3.1,3.1,0,0,1,73.44,35c-.56-.44-1.12-.89-1.67-1.36l-.1.2-.82-.4a.1.1,0,0,1-.14,0,.09.09,0,0,1,.09-.07,50.91,50.91,0,0,0-44.1-.84,15.84,15.84,0,0,1-3.41,2.17l5,10.76ZM74,35.83l0,0s0,0,0,.06l0,0ZM71.85,34A.1.1,0,0,1,72,34c0,.07,0,.11,0,.17h0a.09.09,0,0,1-.06,0A.11.11,0,0,1,71.85,34ZM29.46,46.93l0-.11c.08,0,.12,0,.19,0A.12.12,0,0,1,29.46,46.93ZM29,43.51h0l0,0v-.06s0,0,0,0Zm.14.27s0,0,0,0l-.05,0,0,0Zm1.24,2.91a.08.08,0,0,1,.08,0h0a1.21,1.21,0,0,0-.08.19l-.09-.14A.24.24,0,0,1,30.39,46.69Zm-.16-1.22s.09,0,.09,0-.06,0-.09,0l-.11.05c-.07,0-.07-.09-.11-.11s-.11,0-.12-.12l.1-.14c.07,0,.07.15.11.23S30.22,45.4,30.23,45.47Zm-1.4-4.17c.07,0,.07.06.08.1l0,.05,0,0S28.78,41.36,28.83,41.3Zm-.11-.07h0a.09.09,0,0,1-.07,0,.5.5,0,0,1,0-.18.47.47,0,0,1,.1.11A.17.17,0,0,1,28.72,41.23Zm1.51,2.91s.05.07,0,.12a.37.37,0,0,0-.28.05l-.14-.1C29.93,44.13,29.93,44.13,30.23,44.14Zm.4.62c-.08,0-.1-.08-.08-.14S30.65,44.67,30.63,44.76Zm.08.1v0h-.07l0,0ZM31,45s0,.07,0,.1,0,.16,0,.24-.13.08-.22,0Zm.84.74.14.33c0,.07-.08.15.06.28-.2-.08-.18-.22-.25-.29l-.1,0C31.7,45.94,31.79,45.92,31.8,45.75Zm-2.71-6.18s0,0,0,0l0,0s0,0,0,0h0ZM36,54a.35.35,0,0,1,.15,0l-.14.19-.11,0c-.1,0,0-.12,0-.17s-.07,0-.1,0-.08,0-.08,0l-.24.09h0s0,.08,0,.12a.12.12,0,0,1,0,.13c-.08,0-.08-.1-.1-.16a.06.06,0,0,1,.05-.09h0a.11.11,0,0,1,0-.05l0-.06a.41.41,0,0,1,0-.08.26.26,0,0,1,.19.1.21.21,0,0,1,.1,0s.08,0,.08,0Zm-.54-1.32c.06,0,.06.06.08.09s0,0,0,.05,0,0,0,0S35.4,52.7,35.45,52.64Zm.42.88v-.06l0,0v.06Zm1.6,3.58,0,0V57h0S37.47,57.08,37.47,57.1Zm.37.81c0,.08-.06,0-.09,0s-.09,0-.08,0,.06,0,.09,0S37.85,57.89,37.84,57.91Zm-.73-1,0,0a.08.08,0,0,0,0,0,.08.08,0,0,1,0-.08h0c.07,0,0,0,0,.07a.13.13,0,0,0,0,.08.18.18,0,0,1,.09.16L37.13,57C37.09,57,37.08,56.92,37.11,56.88Zm-.42-1q.12,0,.06.15C36.68,56,36.65,55.94,36.69,55.87Zm1,2.23h0v.06h0Zm-1.26-3.05a.09.09,0,0,1-.06-.15Q36.5,54.95,36.44,55.05Zm.1,1.08s0,0,0,0,.06.07,0,.13-.07-.06-.08-.09A.09.09,0,0,1,36.54,56.13Zm-.29-.57V55.5h0s0,0,0,.06Zm.54,1.09s.09,0,.08,0-.06,0-.09,0-.09,0-.08,0S36.76,56.61,36.79,56.65Zm3,6.52-.05,0v0l0,0S39.81,63.16,39.81,63.17Zm.69,1.6s0,0,0,0h0l-.05,0s0,0,0,0A.1.1,0,0,1,40.5,64.77Zm-1.11-2.62h0a.1.1,0,0,1,0,0,.1.1,0,0,0,0,0h0a.1.1,0,0,1,0,0ZM39.33,62c-.1,0-.1,0-.08-.14S39.35,61.92,39.33,62Zm.74,2,0,0h0a.1.1,0,0,1,0-.05Zm-.18-.08,0,0,0,0h0Zm.16.28s0,0,0,0h0l0,0a.08.08,0,0,1,0,0ZM42,68.65l-.13.08a.57.57,0,0,1-.26.08c0-.08,0-.07,0-.07s0-.15.06-.21ZM41.24,67s0-.09,0-.08,0,.06,0,.08,0,.09,0,.09S41.21,67,41.24,67Zm2,5.45a1.17,1.17,0,0,1,.05-.11.1.1,0,0,1,0,0l0,0s0,0,0,0A.13.13,0,0,1,43.22,72.41ZM45,76.6a.08.08,0,0,1,0,0l0,0s0,0,0,0Zm-.5-.68s0,0,0,0,0,0,0,0l.05,0Zm1,2.23s0,0,0,0l0,0,0,0S45.48,78.13,45.49,78.15Zm-2-4.55,0-.11-.09,0s0,0,0-.06a.84.84,0,0,1,.14-.06c.1,0,.1.12.12.2A.25.25,0,0,1,43.45,73.6Zm-1-2.16q0-.12.15-.06C42.58,71.45,42.53,71.48,42.46,71.44Zm.66,1.37,0,0h0a.1.1,0,0,1,0,0Zm-2.38-4.62-.1,0,.07-.15.1-.06a.11.11,0,0,1,.11,0h0Zm1,2v.06h0v-.06S41.73,70.16,41.73,70.17Zm-1.41-2,0,0s0,0,0,0l.05,0S40.33,68.15,40.32,68.17Zm.43,1s0,0,0,.06l0,0V69.1h0Zm-1.22-2.84s0,0,0,0l0,0,0,0Zm-2.41-5.84,0,0a.13.13,0,0,1,0,.06l0,0Zm-1-2.28V58.1l0,0a.13.13,0,0,1,0,.06Zm-.43-1.34a.11.11,0,0,1,.07.16A.11.11,0,0,1,35.71,56.82Zm5,11.95h0l0,0,0,0S40.66,68.78,40.68,68.77Zm-1.87-4.59c0-.08.08-.1.15-.07S38.88,64.21,38.81,64.18ZM36,57.13s0,0,0-.06h0v.07Zm4.73,11.12c.14.12,0,.2,0,.29l-.15-.08C40.61,68.39,40.73,68.37,40.73,68.25Zm.1.53a.44.44,0,0,0,.15,0s.07,0,.11,0-.12.09-.2.11S40.83,68.84,40.83,68.78Zm-.68-1.91h0l.05,0,0,0,0,0Zm-3.09-7.38s0,0,0,0l.05,0,0,0h0Zm-2.68-7.87c-.08,0-.1-.09-.07-.15S34.4,51.53,34.38,51.62Zm.94,2h0a.1.1,0,0,1,0,0l0,0Zm-2.62-5.8,0,0,0,0,0,0Zm3.23,7.69s0,0,0,0l-.05,0v0A.1.1,0,0,1,35.93,55.51ZM37,58.29c.1,0,.1.06.08.15S37,58.35,37,58.29Zm.53,1.37s0,0,0,.05,0,0,0,0,0-.07,0-.13S37.56,59.62,37.57,59.66Zm-1-2a.18.18,0,0,1-.1-.24A.19.19,0,0,1,36.6,57.64Zm-1-2.24h0l0,0h0Zm.37.87s0,0,0,0,0,0,0,0l0,0S36,56.26,35.94,56.27Zm4.25,10.18v0l0,0s0,0,0,0ZM35.33,55s0,0,0,0l0-.05,0,0ZM44,75.41h.07s0,0,0,0H44Zm-1.56-3.72,0,0s0,0,0,0,0,0,0,0Zm0-.56c.06,0,.06.06.1.12l-.13,0c-.06,0-.06-.06-.08-.09S42.42,71.12,42.47,71.13Zm-1-2.45v-.06s0,0,0,0v.06Zm.71,1.46h0a.1.1,0,0,1,0,0l0,0Zm1,2h0l0,0,0,0S43.07,72.17,43.09,72.16Zm0,.26s0,0,0,0,0,0,0,0-.07.05-.13,0S43.05,72.43,43.09,72.42Zm-.45-.8v0a.1.1,0,0,1,.05,0s0,0,0,0S42.65,71.64,42.64,71.62Zm-.76-2.7,0,0,.05.05,0,0Zm3.32,7.75h.07s0,0,0,0h-.06Zm-2.13-5.1V71.5l0,0s0,0,0,.06Zm-2.53-5.66,0,0,0,0a.08.08,0,0,1,0,0Zm-1.87-4.32a.16.16,0,0,1-.06-.21c.06,0,.13-.05.16.08Zm1.61,4c-.09,0-.07-.09-.12-.14s-.08,0-.1,0-.09,0-.08,0,.06,0,.08,0a.07.07,0,0,1,.11,0C40.27,65.5,40.27,65.5,40.28,65.62Zm-.51-.88-.15.06,0-.13c.06-.08.15.07.2,0l.06,0ZM35.68,54.41c0,.08-.08.1-.15.07S35.59,54.39,35.68,54.41ZM35.21,53s0,0,0,0,.07,0,.12,0-.05.06-.09.07S35.23,53.05,35.21,53Zm-.51-1.62a.21.21,0,0,1-.15-.21c0-.07.07-.07.14-.07S34.63,51.32,34.7,51.42Zm-1.11-2.33a.09.09,0,0,1-.05-.13c.07,0,.11,0,.17,0A.11.11,0,0,1,33.59,49.09Zm1.24,3.07c0-.1,0-.1.13-.11s-.08.07-.12.12a.21.21,0,0,0,0,.07.08.08,0,0,1,0,.09C34.77,52.24,34.77,52.24,34.83,52.16Zm-3.69-8.8-.05,0,0,0s0,0,0,0S31.14,43.34,31.14,43.36Zm1.45,3.52a.22.22,0,0,1-.22.15c-.06,0-.06-.07-.06-.13S32.48,47,32.59,46.88ZM31.44,45c-.08,0-.1-.08-.06-.16A.1.1,0,0,1,31.44,45Zm3.09,7.82c0,.08-.06,0-.08,0s-.1,0-.09,0,.06,0,.09,0S34.54,52.77,34.53,52.79ZM34.92,54,35,54s0-.09,0-.09,0,.06,0,.09l.05.12-.08.17-.15-.06Zm.77,2.21s0,0,0,0l-.15.06c-.05.11,0,.18.07.31l-.06.16c-.11-.07-.11-.18-.16-.27a.25.25,0,0,0,0-.17.19.19,0,0,1,.06-.17l-.17-.09c0-.06.06-.06.09-.08a.25.25,0,0,0,0-.07c0-.06.06,0,.09-.07S35.57,55.92,35.69,56.25ZM38.54,64s0,0,0,0l-.05,0,0,0Zm2.69,7.1a.11.11,0,0,1,.16-.07A.11.11,0,0,1,41.23,71.13Zm.2.08v.06h0V71.2Zm.62,1.69a.1.1,0,0,1,.05-.08h.09a.3.3,0,0,1,0,.1.15.15,0,0,1-.07.09l0,.11c.09.07.17-.08.27,0l-.08.15-.1,0c-.08,0-.18,0-.2.16s-.07,0-.09-.09.09-.19.13-.34c0,0,0,0,0-.06Zm.59.87c-.08,0,0-.06,0-.08s0-.09,0-.09,0,.06,0,.09S42.66,73.78,42.64,73.77Zm.41.89c0,.08,0,.07-.09.09a.09.09,0,0,1-.07-.06.1.1,0,0,1,0-.09h0Zm-2.92-5.73s0,0-.05.07a.1.1,0,0,0-.07.07l.11.05s0,.12-.09.16a.5.5,0,0,1-.12-.28l.1-.07a.13.13,0,0,1,.12,0ZM35.31,57.62s0,0,0,.05a.1.1,0,0,0,0,0l-.05,0Zm-1.66-3.94,0,0,0,0s0,0,0,0Zm2.92,7c.07,0,.12,0,.17.05l0,.07a.09.09,0,0,1-.12.08A.22.22,0,0,1,36.57,60.69Zm-3.83-9.5c-.08,0-.1-.08-.06-.15S32.78,51.12,32.74,51.19Zm.54,1.2v0H33.2s0,0,0,0ZM36.39,60a.18.18,0,0,1,.1.24A.19.19,0,0,1,36.39,60Zm2.3,5.54,0,0a.08.08,0,0,1,0,0l0,0S38.7,65.54,38.69,65.55Zm1.15,2.7,0,0s0,0,0,0,0,0,0,0Zm-2.26-5.31c0-.08.06,0,.08,0s.1,0,.09,0-.06,0-.09,0S37.57,63,37.58,62.94ZM37,61.42l0,0v-.06h0Zm.5,1.13s0,0,0,0h0l0-.05s0,0,0,0Zm-.84-2,0,0,0,0,0,0S36.63,60.5,36.64,60.5Zm2.5,6.3s0,0,0,0l-.05,0,0,0ZM32.67,51.49l0,0,0,0,0,0Zm4.19,10.07c.06,0,.06.06.08.1s0,0,0,.05l0,0S36.81,61.62,36.86,61.56Zm.45,1.09h0l0,0s0,0,0,0l-.05,0ZM40,68.8s0,0,0,0h0a.08.08,0,0,1-.08,0s0,0,0,0,0,0,.07,0a.52.52,0,0,0,.12-.13l.07.14C40.11,68.82,40.06,68.84,40,68.8Zm-3.16-8.22h0l0,0h0A.1.1,0,0,1,36.83,60.58Zm-.91-2.08,0,0,0,0s0,0,0,0A.1.1,0,0,1,35.92,58.5ZM33.4,52.12c.07,0,.07.06.08.09a.09.09,0,0,1,0,0l0,0S33.35,52.18,33.4,52.12ZM32.9,51s0,0,0,0L33,51a.08.08,0,0,1,0,0Zm7.83,18.53c0,.06,0,.06-.09.08l0,0a.08.08,0,0,1,0,0S40.67,69.46,40.73,69.51Zm-.48-1s0,0,0,0,0,0,.05.05a.1.1,0,0,0,0,0A.1.1,0,0,1,40.25,68.5ZM41,70.07l0,0s0,0,0,0,0,0,0,0Zm-.53-.91v0h0l.05,0s0,0,0,0Zm0-.12q-.12,0-.06-.15C40.42,68.92,40.45,69,40.41,69Zm-.35-.86,0,0s0,0,0,0l-.05,0ZM37.88,63s0,0,0,0l0,0,0,0Zm-.76-1.9c.09,0,0,.06,0,.09s0,.09,0,.08,0-.06,0-.08S37.11,61.09,37.12,61.09Zm2.28,5.72a.1.1,0,0,1,.06.16C39.38,66.94,39.36,66.89,39.4,66.81ZM34.3,53.32c0,.1-.06.1-.15.08S34.24,53.3,34.3,53.32Zm-.92-2.06V51.2l0,0v.06Zm1.39,3.62,0,0s0,0,0,0,0-.07,0-.13S34.76,54.84,34.77,54.88ZM33.8,52l0,0,.05,0h0A.1.1,0,0,1,33.8,52Zm.8,1.82a.13.13,0,0,1,0,.06l0,0v-.06S34.6,53.83,34.6,53.84Zm-2.32-5.49c-.06,0-.08-.07,0-.16l.14.13S32.34,48.36,32.28,48.35Zm.87,2.31c.08,0,.08.06.09.09s-.07,0-.11,0l-.24.1c-.08,0-.08-.06-.1-.09s.08,0,.12,0Zm-.94-.84c-.09.08-.09.08-.17,0h0l-.11,0s0,.12-.09.13,0,.1,0,.09,0-.06,0-.09-.11-.19-.1-.31l.25,0,.05.12C32.1,49.82,32.15,49.77,32.21,49.82Zm3.15,8.47,0,.05,0-.06s0,0,0-.05.1-.08.16,0Zm4.81,11.43s0,0,0,.06h0V69.7S40.17,69.71,40.17,69.72ZM34.69,57.43a.11.11,0,0,1-.07-.16l.08,0h0s0,0,.08,0a.16.16,0,0,1,.08.06C34.82,57.4,34.74,57.39,34.69,57.43Zm.2.37s0,.09,0,.09,0-.06,0-.09,0-.09,0-.08S34.92,57.78,34.89,57.8Zm-.46-.22q0-.12.15-.06C34.56,57.59,34.5,57.61,34.43,57.58Zm.45.9v.06l0,0s0,0,0-.06Zm-2.32-5.29c-.08,0-.1-.08-.06-.16S32.6,53.11,32.56,53.19Zm2.66,6.33s0,0,0,.07h0l0,0v-.06Zm-2.93-6.67-.08-.2c0-.07.06-.07.09-.09s.1.13.12.2S32.36,52.81,32.29,52.85Zm.43.88s0,0,0,0l-.05-.05,0,0Zm-1-2.53v0l.05,0,0,0Zm3,6.74a.74.74,0,0,0,0,.12.25.25,0,0,1-.12-.24h0C34.71,57.85,34.72,57.85,34.75,57.94Zm1.43,3.53c.08,0,.1.08.06.16S36.14,61.55,36.18,61.47Zm-2.36-5.79s0,.09,0,.09,0-.06,0-.09l0-.08a.07.07,0,0,1-.11,0s-.09,0-.08,0,.06,0,.08,0a.07.07,0,0,1,.11,0s.08,0,.09,0Zm1.24,2.87,0,.05,0,0-.05,0Zm.34.75,0,0s0,0,0,0,0,0,0,0Zm.79,2,.05,0,0,0,0,0Zm-3-7c0-.1.08-.07.13-.13a.06.06,0,0,1,0,0s0,0,0,0,0,.06,0,.09S33.28,54.27,33.16,54.28Zm1.27,2.24c.12,0,.12,0,.12.13s-.07-.06-.11-.11h0c-.06,0-.08-.06-.09-.11a.1.1,0,0,1,.12-.07.39.39,0,0,1,0,.16Zm-.29-.8,0,0h0l0,0s0,0,0,0Zm-1.6-3.56h0l0,.05h0l-.07,0a.19.19,0,0,1,0-.08.21.21,0,0,1,.21-.09C32.68,52.08,32.59,52.06,32.54,52.16Zm5.64,13a.11.11,0,0,1,.07.16A.11.11,0,0,1,38.18,65.21ZM38.87,67l0,0h0l.05,0Zm-3.29-8,0,0,0,0s0,0,0,0Zm-2.79-6.7.05,0s0,0,0,0a.1.1,0,0,1,0,0Zm2.32,5.34a.08.08,0,0,1,0,0h0l0,0s0,0,0,0ZM31,48l0,0h.06a.1.1,0,0,1,0,0Zm-.05-.35s0,0,.05-.05l0,0,0,0S31,47.61,30.93,47.6Zm-.33-1s0,0,0,.06l0,0v-.06S30.6,46.62,30.6,46.63Zm0,.33.09,0a.45.45,0,0,1,.14.27.18.18,0,0,1-.09.08l-.11,0h0s0-.07,0-.1,0-.06-.08-.06Zm-1.06-2.41h-.07l0,0h.06A.23.23,0,0,1,29.55,44.55ZM30.17,46l0,0,0,0s0,0,0,0Zm1,2.59a.19.19,0,0,1-.25.1l.09-.15S31.11,48.59,31.17,48.6Zm-2.93-6.25,0,0,0,0s0,0,0,0Zm1.94,4.88a.18.18,0,0,1-.09-.24A.18.18,0,0,1,30.18,47.23ZM28.68,44c-.11-.07-.11-.16-.15-.23a.18.18,0,0,0-.15.14,0,0,0,0,0,0,0,.36.36,0,0,1-.07-.09.66.66,0,0,1,0-.11c0-.06.09,0,.13,0l.05-.09c.07,0,.06.09.09.13s.13.05.21,0ZM30,47.18l0,0,0,0v0S30,47.16,30,47.18Zm-.47-.91s0,0,0,0l-.05,0,0,0Zm-.92-2h0l-.05,0s0-.05-.07-.21A.24.24,0,0,1,28.62,44.29Zm1.73,4.1,0,0,0,0s0,0,0,0S30.33,48.39,30.35,48.39ZM29.3,46.08l0,.05h0l0,0Zm-1-2.6,0,0h0l0,.05Zm-.34-.6,0-.11c.09,0,.13,0,.19,0S28.05,42.92,28,42.88Zm-.18-.33a.11.11,0,0,1-.07-.16A.11.11,0,0,1,27.79,42.55ZM30,47.92s0,0,0,0l.05,0,0,0Zm.42,2,0-.06s0,0,0,0l.34-.14c0,.09,0,.09,0,.13l0,.08c-.08.1-.14.06-.2,0S30.48,50,30.42,49.89Zm.29.44.17,0c.07.11,0,.17,0,.28A.49.49,0,0,1,30.71,50.33Zm.38.62s-.06,0-.07-.06v-.07l.15-.34,0,0c0-.1,0-.1.13-.11s-.08.07-.12.12l0,.11Zm.29.2v.06l0,0v-.06Zm.5,1c0,.1-.05.1-.14.07S31.82,52.11,31.88,52.13Zm.25.69a.18.18,0,0,1,.1.23A.18.18,0,0,1,32.13,52.82Zm.69,1.57s0,0,0,.07l0,0v-.06Zm.13.19a.18.18,0,0,1,.1.24l-.15-.08Zm1.13,2.6s0,0,0,0H34l0,0Zm0,.36s0,0,0,0l0,0v0A.1.1,0,0,1,34.12,57.54Zm.2.22s0-.09,0-.08,0,.06,0,.08a1.17,1.17,0,0,0,0,.11h0a.12.12,0,0,1,0,.08h-.09A.25.25,0,0,1,34.32,57.76Zm0,.27h.06s0,0,0,0h-.06ZM35.19,60a.1.1,0,0,1,0,0s0,0,0,0a.1.1,0,0,1,.05,0Zm1,2.08,0,0,0,0s0,0,0,0S36.14,62,36.14,62ZM36,61.86c0-.08.08-.1.15-.07A.1.1,0,0,1,36,61.86Zm1.08,2,.15.13s0,0-.11,0S37.07,64,37.1,63.91ZM39,68.07s0,0,0,0,0,0,0,0,0,0,.05.05Zm-1.34-3.31a.09.09,0,0,1-.13,0c0-.07,0-.11,0-.17A.11.11,0,0,1,37.66,64.76Zm-2.15-5.37s0,0,0,0l0,.05,0,0Zm3.78,9.08s0,0,0,0l-.05,0s0,0,0,0Zm.29.54c-.09,0-.07-.08-.12-.13h0l0,0c0-.09.06,0,.09,0S39.58,68.89,39.58,69ZM37.8,64.73c-.08-.09-.08-.09,0-.17s0-.09,0-.09,0,.06,0,.09S37.85,64.66,37.8,64.73Zm3.42,8.14,0-.08c0-.06.05-.08.08-.08l.11,0a.52.52,0,0,1,.1-.11.25.25,0,0,1,.16,0l0,.09C41.65,72.75,41.48,72.83,41.22,72.87Zm.63.66,0,0s0,0,0,0,0,0,0,0Zm.34,1.36,0,0s0,0,0-.06l0,0ZM42,73.77c.08.09.17,0,.24,0s-.08.07-.12.1a.2.2,0,0,0-.08.08c0,.06-.07.09-.13.07l0,0C41.93,74,42,73.86,42,73.77Zm.84,2.49h0l0,0s0,0,0,0l0,0A.08.08,0,0,1,42.85,76.26Zm-.29-.7,0,0v-.06h0S42.56,75.54,42.56,75.56Zm-.23-.68c0-.08.08-.1.15-.07S42.4,74.91,42.33,74.88Zm.11-.58s-.07.08-.16,0l.13-.15A.18.18,0,0,1,42.44,74.3Zm.6,1.32c-.06,0-.06-.05-.07-.09s0,0,0,0,0,0,0,0S43.09,75.57,43,75.62Zm-.57-1.57c.1,0,.1.06.08.15S42.45,74.11,42.47,74.05Zm1.71,3.84h-.06l0,0h.06S44.19,77.88,44.18,77.89Zm-.27-.81s0,0,0,0l0,0,0,0Zm-.42-.8c-.07-.07-.09-.11-.06-.17l.19.08Zm-.42-.88c.06-.11.14-.1.2-.13s.07,0,.11,0S43.4,75.31,43.07,75.4Zm-1-3.26.1.25a.08.08,0,0,1-.11,0s0,0,0,0,.07.11,0,.17-.07-.09,0-.14L42,72.35h0l-.09-.23c-.06,0-.11,0-.16,0s-.08-.14-.11-.21-.06-.15-.09-.2.11-.09.16-.06l0,.12c0,.12.18.08.18.2s.19,0,.28,0ZM41,69.25c.09,0,.12.13.29.14l-.19.08A.22.22,0,0,1,41,69.25Zm1.82,4.21A.09.09,0,0,1,43,73.4c0,.09-.07.17.06.28A.25.25,0,0,1,42.85,73.46Zm.26.47,0,0,0,0s0,0,0,0Zm1.71,4,0,0V78h0S44.82,77.93,44.82,77.91ZM42.36,72.3l0,0h0l0,0Zm2.74,6.5s-.07.06-.13,0,.06-.07.09-.08a.09.09,0,0,1,0,0Zm-.85-2v-.06h0s0,0,0,0v.06Zm-.46-1.29q0,.12-.15.06h0l.06-.15C43.78,75.44,43.77,75.51,43.79,75.55ZM45,78.37c0-.1.06-.1.15-.08S45,78.39,45,78.37Zm-.12-1-.09-.09a.14.14,0,0,0-.1-.06h0a.09.09,0,0,1,0-.06l.08,0,0,0a.3.3,0,0,0,.22.11Zm.76,1.06s-.09,0-.08,0,.06,0,.09,0,.09,0,.08,0S45.64,78.44,45.61,78.41Zm-.19-.7c0-.08.08-.1.16-.06a1.17,1.17,0,0,0,0,.11l0,0C45.44,77.79,45.44,77.74,45.42,77.71Zm.38.35c-.06.06,0,.13,0,.18s-.08-.12-.1-.19a.21.21,0,0,1,.21-.09C45.91,78,45.83,78,45.8,78.06Zm0-.29h-.06v0h.07S45.79,77.77,45.78,77.77Zm-.67-1.5,0,0h0l0,0s0,0,0,0ZM45,76c0-.1.06-.09.15-.07S45.05,76,45,76Zm-3.92-9.76s0,0,0,0,0,0,0,0l.09.23s.1,0,.09,0-.06,0-.09,0-.12,0-.18,0a.24.24,0,0,1,.06-.17.77.77,0,0,0-.09-.13c.07-.06.12-.11.2-.1S41.08,66.15,41.07,66.22Zm-.35-1.06h0v-.06h0A.13.13,0,0,1,40.72,65.16Zm-.64-1.81h0l0,0,0,0Zm-.56-1.21v0h.07l0,0Zm2.19,5.18-.05,0,0,0,0,0S41.71,67.3,41.71,67.32Zm1.81,4.3v.07l0,0v-.06Zm.89,2.12s0,0,0,0a.06.06,0,0,1,.06.06,1.07,1.07,0,0,0-.09.19s0-.06-.06-.09A1.17,1.17,0,0,1,44.41,73.74ZM40.22,63.58v0l.05,0s0,0,0,0h0Zm5.72,13.11-.14.09a.23.23,0,0,1-.07-.08.11.11,0,0,1,0-.08h0Zm-1.61-3.63V73s0,0,0,0v.06Zm-.65-2.54,0,0v0h0a.1.1,0,0,1,0,0Zm1.26,3v.06s0,0,0,0a.13.13,0,0,1,0-.06Zm.11.19.17.09a.07.07,0,0,1,0,0,2.17,2.17,0,0,0-.26,0v-.06ZM46,75.35l0,0,0,0h0Zm-1.4-3.23v0h.06s0,0,0,0ZM46.64,77a.1.1,0,0,0,0,0l-.05,0v0Zm.31.35.15.11,0,.07s.08.1,0,.13,0-.12-.12-.17h-.16C46.78,77.34,46.87,77.35,47,77.3Zm.38,1.07v.06h0s0,0,0-.07Zm.18.66c0,.07,0,.07-.09.09a.09.09,0,0,1-.07-.06.12.12,0,0,1,0-.1h0Zm-.8-1.3a.1.1,0,0,1,0,0s0,0,0,0l0,0Zm.07.28c-.08,0-.1-.08-.06-.15A.1.1,0,0,1,46.78,78Zm.27.29,0,0s0,0,0,0,0,0,0,0Zm-2.58-6c0-.07.08-.09.15-.07S44.56,72.37,44.47,72.34ZM45.26,74c0,.07-.06.07-.09.08a.07.07,0,0,1-.05,0s0,0,0,0S45.2,74,45.26,74Zm-1-1.91,0,0V72h0Zm.3.66s0,0,0,0h0l0,0s0,0,0,0Zm-1.19-2.59s0,0,0,0,0,0,0,0,.07-.05.12,0S43.4,70.18,43.36,70.19Zm-.25-.55s0,0,0,0l0,0,0,0ZM45,74.11a.47.47,0,0,1,.11.29c-.13,0-.08-.12-.13-.17l-.11,0C44.9,74.12,44.94,74.1,45,74.11ZM45.94,77v.06h0V77Zm-.37-.86h0l0,0,0,0S45.55,76.17,45.57,76.16Zm-2.26-5.33v-.07s0,0,0,0,0,0,0,.06ZM41.14,65.4a.09.09,0,0,1,0,0l0,0s-.06-.06,0-.12S41.13,65.37,41.14,65.4ZM46.4,78.63a.11.11,0,0,1-.07-.16A.11.11,0,0,1,46.4,78.63Zm-1.28-3.31a.1.1,0,0,1,.06.16C45.1,75.45,45.08,75.4,45.12,75.32Zm.52,1.08h.06a.1.1,0,0,1,0,0h-.07Zm.61,1.33,0,0,.05.06a.11.11,0,0,1,0,.05c-.06.07-.11.08-.16,0A.76.76,0,0,1,46.25,77.73Zm.46.92a.08.08,0,0,1,0,0l0,0s0,0,0,0Zm0,.29c-.1,0-.1,0-.1-.13s.06.09.12.13h0l0,0C46.8,79,46.78,79,46.75,78.94Zm.44.73h0v-.07l0,0S47.19,79.65,47.19,79.67Zm-.7-1.58c0-.08.08-.1.14-.07S46.58,78.11,46.49,78.09Zm-.24-.87a.59.59,0,0,1-.13-.29l.14-.07c0-.1,0-.1.13-.11s-.09.07-.13.12,0,0,0,.07a.19.19,0,0,0,0,.08C46.22,77.08,46.34,77.13,46.25,77.22ZM47,78.75l0,0v-.06l0,0S47,78.73,47,78.75Zm-.09-.24a.1.1,0,0,1,0,0,.1.1,0,0,0,0,0,.1.1,0,0,1,0,0A.1.1,0,0,0,46.9,78.51Zm-.07-.15c-.08,0-.1-.08-.06-.16A.1.1,0,0,1,46.83,78.36Zm.65,1c0,.1,0,.1-.13.11s.09-.07.13-.12a.09.09,0,0,1,0,0s0,0,0,0S47.51,79.35,47.48,79.37Zm.85.37-.34.14c-.06-.13-.25-.14-.23-.29s-.13,0-.14-.1,0-.1.08-.12l.1-.22.21.18.12,0c.13,0,.08.2.17.27l.09,0Zm-1-2h0l0,0h0Zm-.58-1.3s0,0,0,0,0,0,0,.05v0h0A.1.1,0,0,1,46.73,76.42Zm.56,1.17q0-.11,0-.12l.17,0q.06.1,0,.12Zm0-1.06s0,0,0,0,0,0,0,0a.1.1,0,0,1,.05,0ZM48.44,79s0,0,0,0,.06-.06.12,0-.06.07-.09.08A.09.09,0,0,1,48.44,79Zm-1-2.34s0,0,0,0,.06-.06.12,0-.06.07-.09.08A.09.09,0,0,1,47.47,76.66Zm1.24,2.73s0,0,0,0l0,0,0,0Zm.19-.24,0,0v0l0,0S48.9,79.14,48.9,79.15Zm-.18-.52c0,.09-.06,0-.09,0l-.15.06-.07-.15s-.09,0-.09,0,.07,0,.09,0l.11,0,0-.1c.12,0,.09.09.06.17s0,0,0,.07S48.72,78.62,48.72,78.63ZM48.35,78c0,.07-.06.07-.09.08a.09.09,0,0,1,0,0s0,0,0,0S48.29,77.91,48.35,78ZM48,77.27l0,0,.05,0a.08.08,0,0,1,0,0Zm.51.81a.18.18,0,0,1-.24.1A.19.19,0,0,1,48.5,78.08Zm-.63-1.62h0v-.06h0Zm.42.47s-.08,0-.1-.05-.1,0-.09,0,.06,0,.09,0a.07.07,0,0,1,.11.05s.09,0,.08,0S48.32,77,48.29,76.93Zm.37.76,0,0,0,0,0,0S48.66,77.68,48.66,77.69Zm-.24-.55,0,0s0,0,0,0,0,0,0,0Zm.33.33q-.12,0-.06-.15A.1.1,0,0,1,48.75,77.47Zm-.21-.73,0,0s0,0,0,0l0,0Zm-.16-.39,0,0v-.06s0,0,0,0Zm1.22,2.51,0,0v-.06l0,0Zm-.25-.72-.05,0c-.07-.06-.09-.1-.06-.16l.11,0s0,0,0,0S49.37,78.12,49.35,78.14Zm.51.39a0,0,0,0,1,0,0l-.1,0-.06,0s0,0-.06,0,.12-.07.19-.15Zm-.26-.25v-.07s0,0,0,0v.06Zm.47.64h0l0,0,0,0Zm-.75-1.87s0,0,0,0,0-.07.17-.17a0,0,0,0,1,0,0l-.09,0,.15-.2.16.06-.12.28Zm-.13-.64,0,0s0,0,0,0,0,0,0,0Zm1,2.17h-.06v0h.07S50.24,78.58,50.23,78.58Zm0-.25,0,0,0,0,0,0Zm0-.19a.1.1,0,0,1,0,0,.1.1,0,0,0,0,0,.1.1,0,0,1,0,0A.1.1,0,0,0,50.22,78.14Zm.55.78c-.06,0-.11.08-.17,0s.09-.08.17,0,.09,0,.08,0S50.79,79,50.77,78.92Zm-.27-.68,0,0,0,0s0,0,0,0Zm-.11-.34c-.08-.05-.1-.09-.08-.15S50.41,77.81,50.39,77.9Zm-.22-.27c-.05.05.06.1,0,.16s-.06-.09-.09-.13,0,0,0,0,.1-.26.14-.39l.06,0a1.81,1.81,0,0,1,.14.33C50.32,77.7,50.24,77.62,50.17,77.63Zm-.37-.82,0,0h.06s0,0,0,0Zm-.14-1s0,.07.05.1h0s0,.07-.05.08a.14.14,0,0,1-.09,0,.36.36,0,0,1,0-.1.31.31,0,0,1,.07-.09s0-.09,0-.08S49.7,75.79,49.66,75.82Zm.35.64s0,0,0,0-.07,0-.12,0,.05-.06.09-.07S50,76.45,50,76.46Zm.06.31c0-.08.12,0,.19-.14l0-.07.17.07c-.05.09-.13.08-.19.12l0,.11-.09,0A.11.11,0,0,1,50.07,76.77Zm.08-.59s0,0,0,0l0,0,0,0S50.13,76.19,50.15,76.18ZM50,75.83s0-.1,0-.16a.18.18,0,0,1,.1.24Zm.84,2.62,0,0,0,0,0,0S50.81,78.44,50.8,78.45ZM50.37,77s-.06,0-.12,0,.06-.06.09-.07,0,0,0,0S50.38,77,50.37,77Zm.91,1.24a.2.2,0,0,1-.2.09v-.26C51.16,78.1,51.29,78.08,51.28,78.22Zm-.69-1.3,0,0,0,0,0,0Zm0-.94-.05,0,0,0s0,0,0,0S50.6,76,50.6,76Zm1.1,2.45c-.06,0-.06-.05-.07-.09s0,0,0,0,0,0,0,0S51.75,78.38,51.7,78.43Zm-.5-1.26h-.06v0h.07S51.21,77.17,51.2,77.17Zm-.52-1.87,0,0v0l.05,0A.08.08,0,0,1,50.68,75.3Zm.74,1.6,0,0s0,0,0,0,0,0,0,0A.1.1,0,0,1,51.42,76.9Zm-.51-1.21a.1.1,0,0,0,0,0,.1.1,0,0,1,0,0s0,0,0,0h0Zm-.16-1.53h0a.1.1,0,0,1,0-.05h0Zm1.53,3.22c-.08,0-.1-.08-.07-.15A.1.1,0,0,1,52.28,77.38Zm-.22-.72-.14-.13s0,0,.1,0S52.1,76.57,52.06,76.66Zm-.34-1.06s0,0,0,0,0,0,0,0l.05,0ZM51.46,75l0,0V74.9h0A.17.17,0,0,1,51.46,75Zm-.35-.86c-.1,0-.09-.12-.12-.19s.06-.06.09-.07l.19,0v.14l-.13,0ZM51,73.75s0,0,0,0,0,0,0,0l0,0s0,0,0,0Zm0-.27.05,0h0l0,0Zm.61,1.35h0v-.06h0Zm-.09-.32c-.1,0-.1,0-.11-.14s.07.09.12.14h.05s0,0,0,0S51.52,74.54,51.5,74.51Zm1.11,2.17,0,0,0,0s0,0,0,0Zm.27.18-.05,0,0,0a.1.1,0,0,1,0,0S52.89,76.84,52.88,76.86Zm-.15-.55-.13.12-.1-.12h-.16c0-.12.12-.09.19-.13l.15.06s0,0,0,0h0s.1-.07.17,0S52.77,76.34,52.73,76.31Zm-.52-.64c.08,0,.1.08.06.16S52.18,75.75,52.21,75.67Zm-.6-1.35,0,0s0,0,0,0l0,0Zm.77,1.57.1-.06a.08.08,0,0,1,.08,0l-.08.3c-.08,0-.13,0-.15,0S52.37,76,52.38,75.89Zm-.56-1.31,0,0s0,0,0,0,0,0,0,0Zm-.3-1.36s.09,0,.08,0-.06,0-.09,0-.09,0-.08,0S51.49,73.18,51.52,73.22Zm-.15-.16V73l0,0s0,0,0,.06ZM52,74.28l0-.14c0-.08-.11-.06-.13-.12s.06,0,.12-.09a3.79,3.79,0,0,1,.18.42Zm.4.57a.1.1,0,0,1-.13.06c0-.07.05-.12,0-.18A.11.11,0,0,1,52.36,74.85Zm.28.87,0,0h.06s0,0,0,0Zm.7,1a1.72,1.72,0,0,1-.09.19s0,0,0-.09a.54.54,0,0,1,0-.11s0,0,0,0A0,0,0,0,1,53.34,76.76Zm-1.45-3.11v0a.1.1,0,0,1,.05,0l0,0Zm1.33,2.7h0l0,0v-.06s0,0,0,0S53.22,76.33,53.22,76.35Zm-.28-.57c0-.08.08-.1.16-.06A.1.1,0,0,1,52.94,75.78Zm-.71-1.71a.1.1,0,0,1,0,0h0l0,0Zm.6.89,0,0v-.06s0,0,0,0Zm.67,1.18s0,0,0,0,0,0,0,0l.05,0Zm-1-2.61,0,0-.26-.08c0-.1-.09-.15,0-.24l.29.15Zm-.35-.74h0a.17.17,0,0,1,0,.07l0,0Zm-.1-.17v-.07h0l0,0v.06Zm1.38,2.83c-.06,0-.06-.06-.07-.09s0,0,0,0,0,0,0,0S53.44,75.39,53.39,75.45Zm-.43-1c-.06,0-.07-.07-.05-.13s.11,0,.17,0A.1.1,0,0,1,53,74.43Zm.32-.13h0a.1.1,0,0,1,0-.05l0,0Zm-1.16-2.93c0-.08.08-.1.15-.07S52.19,71.4,52.12,71.37Zm1.45,2.73,0,0,0,0s0,0,0,0S53.58,74.09,53.57,74.1Zm-.18-.39,0,0,0,0,0,0Zm-.54-1.78,0,0s0,0,0,0,0,0,0,.05ZM54,73.11l0,0V73l0,0S54,73.09,54,73.11Zm-.14-.9,0,0,0,0,0,0Zm-1-2.26c0-.08.09-.1.15-.07S53,70,52.89,70Zm1.53,2.83s0,.07-.12.09l-.11,0c.08-.11.15-.14.23-.12Zm-.16-.06a.11.11,0,0,1-.11,0s0-.09,0-.13a.17.17,0,0,1-.12-.09l0-.11c0-.06.06-.07.12-.07s0,.09,0,.16l0,.08s.1-.06.19,0ZM53,69.65s0,0,0,0H53l0,0Zm0-.19s0,0,0,0,0,0,.06,0l0,0Zm1.22,2.29s-.09,0-.08,0,.06,0,.08,0,.1,0,.09,0S54.22,71.78,54.19,71.75Zm-.07-1.47c0,.14-.14,0-.24.06s0,.07,0,.07,0,0,0-.06l.06-.18-.1,0c0-.05.05-.06.1-.08l.22.2Zm.39.74s0,.1,0,.16a.18.18,0,0,1-.1-.24Zm.11.69c0,.08-.06,0-.09,0s-.09,0-.08,0,.06,0,.09,0S54.63,71.69,54.62,71.71Zm-1.06-2.27s-.07.06-.13,0,.06-.07.1-.08,0,0,0,0S53.57,69.44,53.56,69.44Zm-.16-.24,0,0c-.1-.08-.26,0-.34-.1s.12,0,.16-.1S53.41,69.07,53.4,69.2Zm1.53,3.59h0a.1.1,0,0,1,0,0l0,0Zm.16-.32-.11,0-.16.07,0,.11a.09.09,0,0,1-.07-.12c0-.07.11-.07.17-.1a.3.3,0,0,1,.18-.06C55.1,72.37,55.12,72.41,55.09,72.47Zm-.31-.84s0,0,0,.05h0s-.05-.07,0-.13S54.77,71.6,54.78,71.63Zm.27.31c-.08,0-.1-.08-.06-.16S55.08,71.86,55.05,71.94Zm-.17-.68h-.07l0,0h.06Zm-1-2.66-.14-.08c0-.07.07-.15,0-.23l.15,0c0,.07,0,.13,0,.19A.12.12,0,0,1,53.84,68.6Zm1.67,3.69s-.09,0-.08,0,.06,0,.09,0,.09,0,.08,0S55.54,72.33,55.51,72.29Zm-1.37-3.45a.1.1,0,0,1-.09-.11s0,0,.06,0a.12.12,0,0,0,.15,0l.05,0C54.27,68.81,54.19,68.8,54.14,68.84Zm-.21-.43s0,0,0,0,.07-.06.13,0-.06.07-.1.08S53.94,68.43,53.93,68.41Zm1.57,3.32s0,0,0,0l0,0,0,0S55.52,71.72,55.5,71.73ZM55,69.92h0a.1.1,0,0,1,0,0h0Zm-.65-1.72s-.09,0-.09,0,.06,0,.09,0,.09,0,.08,0S54.39,68.23,54.37,68.2Zm.28.34,0,0s0,0,0,0l0,0Zm-.13-.64s0,.07-.11.09l-.13-.11s.15-.06.16-.17,0-.09,0-.09,0,.06,0,.09S54.49,67.84,54.52,67.9Zm.67,1.51,0,0,0,0,0,0S55.2,69.4,55.19,69.41Zm-.06-.8,0,0s0,0,0,0l0,0A.08.08,0,0,1,55.13,68.61Zm1.24,1.85h-.06s0,0,0,0h.06Zm-.21-.26-.11,0,0,.1s-.08,0-.13,0l.07-.16.17-.07.15.06C56.25,70.18,56.2,70.18,56.16,70.2Zm-.47-.39v-.06h0s0,0,0,.07Zm-.93-2.52,0,0s0,0,0,0,0,0,0,0Zm.14.06,0,0s0,0,0,0,0,0,0,0Zm.63,1.85c.12.11.2.06.31.08l-.17.2h0C55.57,69.43,55.59,69.33,55.53,69.2Zm.63.52s0,0-.06,0v0h.06S56.17,69.72,56.16,69.72Zm-.88-2.41,0,0h0a.1.1,0,0,1,0,0Zm1.11,2.34,0,0v-.06h0Zm-.58-1.43h-.06l0,0h.06S55.82,68.22,55.81,68.22Zm1.08,1.31,0,0v0l0,0S56.89,69.52,56.89,69.53Zm.22.09s-.07,0-.13,0,.06-.06.09-.07,0,0,0,0S57.12,69.62,57.11,69.62Zm-.46-1c-.06,0-.11.07-.17,0,.09-.08.09-.08.17,0s.09,0,.08,0S56.67,68.66,56.65,68.63Zm-.54-1.44c-.1,0-.09-.06-.07-.15S56.14,67.13,56.11,67.19Zm.24.31c0,.08-.05.07-.08.09a.1.1,0,0,1-.08-.06.1.1,0,0,1,0-.09h0Zm.22.93c0-.08.08-.1.15-.07S56.64,68.46,56.57,68.43Zm0-.72h0a.1.1,0,0,1-.11.08c-.06,0,0-.06-.08-.09s.08-.1.16-.07Zm-.83-2.51,0,0h0a.2.2,0,0,1,.08.08s0,.06.1.06-.07.07-.1.11v.16l-.17.07s0,0,0-.13l0-.11s-.09,0-.09,0,.06,0,.09,0S55.67,65.27,55.71,65.2Zm-.17-.14s-.08-.11,0-.17c.08.09.08.09,0,.17s0,.09,0,.09S55.5,65.09,55.54,65.06Zm.83.25c0,.08-.13.12-.39.16,0-.16.19-.21.23-.33S56.32,65.26,56.37,65.31ZM55.94,65c0,.06-.06.06-.09.07s-.08-.09-.14-.18l.11-.14C55.89,64.74,55.9,64.85,55.94,65Zm-.15.83h0s0,0,0,.07l0,0Zm1.14,2.54,0,0v0s0,0,.05.05ZM56,66.24s0,0-.05,0,0,0,0,0,.07,0,.13,0S56,66.23,56,66.24Zm-.09-.54c0-.1.06-.1.15-.08S56,65.72,55.9,65.7Zm1.48,3.06h0l0,0,0,0Zm-.07-.15,0,0s0,0,0,0h0Zm-1.16-3a.15.15,0,0,1,.2,0s.1,0,.15,0,.07.11.06.2-.24-.14-.36,0Zm1.16,2.64a.49.49,0,0,1,.36-.15A.43.43,0,0,1,57.31,68.3ZM57.1,67A.44.44,0,0,1,57,66.7s0-.06,0,0,.07.11.15.13,0,.06.06.12Zm-.8-2.5s-.09,0-.09,0,.06,0,.09,0,.09,0,.08,0S56.32,64.51,56.3,64.47Zm-.08-.21,0,0,0,0a.08.08,0,0,1,0,0Zm1.4,3.18a.1.1,0,0,1,.16-.06C57.75,67.46,57.7,67.48,57.62,67.44Zm-1.39-3.87,0,0,.05,0h0A.1.1,0,0,1,56.23,63.57Zm1.61,3.37a.07.07,0,0,1-.08-.06s-.1,0-.09,0,.06,0,.09,0,.15-.1.24,0S57.9,66.91,57.84,66.94Zm-.34-.77a.1.1,0,0,1,.07.15C57.49,66.29,57.47,66.24,57.5,66.17Zm-.07-.1V66s0,0,0,0,0,0,0,.06Zm.24.49c.07,0,.09.08.06.15S57.63,66.63,57.67,66.56ZM57.32,65s0-.09,0-.08,0,.06,0,.08,0,.09,0,.09S57.29,65,57.32,65Zm.44,1-.08-.08.11-.15.08.08Zm-.45-1.79s0,0-.05-.05a.1.1,0,0,0,0,0,.1.1,0,0,1,0,0S57.31,64.13,57.31,64.15Zm1.17,2.62,0,0v0a.1.1,0,0,1,0,0Zm-.18-.49c-.1,0-.1,0-.08-.14S58.32,66.22,58.3,66.28Zm.35.4h-.07l0,0h.06Zm-1.18-2.47a.1.1,0,0,1,.16-.06C57.6,64.23,57.55,64.25,57.47,64.21Zm1,1.64,0,0s0,0,0,0,0,0,0,0S58.47,65.84,58.45,65.85Zm-.13-.9s0,0,0,0,0,0,0,0,0-.07,0-.13S58.31,64.92,58.32,65Zm-.1-.2-.19,0v-.11l.19,0Zm.13-.63a.11.11,0,0,1-.16.07A.11.11,0,0,1,58.35,64.12Zm-.42-.68c.07,0,.07.06.08.09a.09.09,0,0,1,0,0l0,0S57.88,63.5,57.93,63.44Zm1,2.32h-.07a.16.16,0,0,1,0-.07.07.07,0,0,1,0-.09s0-.09,0-.09,0,.07,0,.09l.06.16c.06,0,.11-.08.18,0C59,65.82,59,65.82,58.93,65.76Zm0-.8-.16-.1c0-.08.11-.08.19-.1s0,.06.07.1Zm-.45-1,.05,0h0l0,0Zm-.16-.91h0l0-.05,0,0Zm-.54-1.51,0,0,0,0h0Zm1.47,2.74s0,0,0,0l0,0h-.08a.1.1,0,0,1,0-.13.1.1,0,0,1,.09,0l.08,0Zm-.63-3.15L58.46,61s.06-.06.12,0S58.65,61.06,58.61,61.15Zm-.19-.42v-.07l0,0v.06Zm.89,1.85-.05,0,0,0,0,0S59.32,62.57,59.31,62.58Zm-.22-1c-.1,0-.1-.06-.08-.15S59.11,61.51,59.09,61.57Zm.58,1.23,0,0v0h0l0,0A.08.08,0,0,1,59.67,62.8Zm.44.44,0,0h0l0,0s0,0,0,0Zm-1.28-3.4h-.06v0h.07S58.84,59.84,58.83,59.84Zm1,1.23,0,0,0,0,0,0A.08.08,0,0,1,59.87,61.07Zm.11-.4c-.08-.05-.1-.09-.08-.15S60,60.58,60,60.67Zm.11-.29a.09.09,0,0,1,0,0s0,0,0,0,0-.07,0-.13S60.08,60.35,60.09,60.38Zm.73,1.12s-.09,0-.08,0,.06,0,.09,0,.09,0,.08,0S60.85,61.53,60.82,61.5Zm-.62-1.85-.05,0,0,0,0,0S60.2,59.64,60.2,59.65Zm.22.41c0-.06.06-.06.1-.08l0,0s0,0,0,0S60.48,60.11,60.42,60.06Zm-.68-1.71c.14.1.12.22.22.34C59.82,58.63,59.82,58.63,59.74,58.35Zm.46,1,0,0h0a.1.1,0,0,0,0,0l0,0ZM61,61.14s0,.09,0,.08,0-.06,0-.09,0-.09,0-.08S61.08,61.11,61,61.14Zm-.24-1.28h0a.11.11,0,0,1-.08,0l-.15-.06a1,1,0,0,1,.31-.16l-.05-.12-.11-.05.07-.16a.41.41,0,0,1,.15.27l-.06.06A.22.22,0,0,1,60.8,59.86Zm-.54-1.47c.05-.07.09-.09.15-.07S60.36,58.42,60.26,58.39Zm.36.4,0,0h.06s0,0,0,0Zm1.09,1.52s0,.08,0,.08,0,0,0,0l-.12,0a.39.39,0,0,0,0,.14.86.86,0,0,0,0,.16l-.16-.07c-.09-.07,0-.15,0-.23s-.09,0-.08,0,.06,0,.09,0l.25-.1a.07.07,0,0,1,.09.05l.08,0-.06-.15h0a0,0,0,0,0,0,0h0a0,0,0,0,1,0,0c-.13-.05-.08-.19-.15-.25s0-.06.18,0a.65.65,0,0,1,0,.11s0,.06,0,.1h0c.07,0,.1,0,.12.07A.07.07,0,0,1,61.71,60.31ZM61,58.82l0,0s0,0,0,0l0,.05Zm1,1.38,0,0s0,0,0-.06h0l0,0ZM61.86,60h0l0,0,0,0S61.88,59.94,61.86,60Zm-.38-1.06h0l.05,0h0a.1.1,0,0,1,0,0Zm.56,1H62s0,0,0,0h.06Zm-1.11-3.54s0,0,0-.05l0,0,0,0Zm1.54,2.83,0,0,0,0,0,0S62.47,59.16,62.47,59.17Zm0-.34a.11.11,0,0,1-.07-.16A.11.11,0,0,1,62.42,58.83ZM61.28,55.9h0l0,0h0Zm1.31,2,0,0s0,0,0,0l0,0Zm-.71-1.72-.05,0,0,0h0l0,0ZM61.8,56a.24.24,0,0,1-.12-.23h0l0,0S61.77,55.84,61.8,56Zm-.08-.63,0,0v0l0,0S61.72,55.36,61.72,55.37Zm-.37-1.31h0l0,0V54h0A.17.17,0,0,1,61.35,54.06Zm.31.19,0,0,0,0s-.06-.07,0-.13S61.65,54.21,61.66,54.25Zm.39.42,0,0s0,0,0,0,0,0,0,0Zm-.18-.47c-.09,0,0-.06,0-.09s0-.09,0-.08,0,.06,0,.09S61.88,54.21,61.87,54.2Zm.15.13h0a.1.1,0,0,1-.05,0s0,0,0,0l.05,0Zm-.29-.7a.11.11,0,0,1-.07-.16A.11.11,0,0,1,61.73,53.63Zm.9,1.73-.05,0s0,0,0,0,.07-.05.13,0S62.66,55.34,62.63,55.36Zm-.79-1.74.11-.16s.06.06.06.12S61.94,53.65,61.84,53.62Zm.33.19h0v-.07l0,0Zm1.35,2.5a.12.12,0,0,1-.08.09.45.45,0,0,0-.11,0l0,0c.08-.1,0-.26.11-.35a.75.75,0,0,1,.07.12S63.5,56.27,63.52,56.31Zm.42-.21,0,0v0a.1.1,0,0,1,.05,0S63.94,56.08,63.94,56.1Zm-.81-2a.11.11,0,0,1-.07-.16A.11.11,0,0,1,63.13,54.15Zm1-.61,0,0v-.06h0Zm.18.11s0,.09,0,.08,0-.06,0-.09,0-.09,0-.08S64.37,53.62,64.34,53.65ZM64.2,53l0,0v0s0,0,0,0Zm.7,1.43c-.06,0-.06,0-.16-.29.1,0,.1.09.12.14S64.93,54.34,64.9,54.4Zm-.49-1.79,0,0,0,0,0,0S64.42,52.6,64.41,52.61Zm.73,1.2,0,0h0s0-.07,0-.13S65.12,53.78,65.14,53.81Zm-.51-1-.07-.11c.07-.07.12-.09.17-.06S64.7,52.73,64.63,52.78Zm-.25-.57s0,0,0,0h.06l0,0Zm.92,1.21s0,0,0,0,0,0,0,0,.07-.05.12,0S65.34,53.41,65.3,53.42Zm-.19-.33a.11.11,0,0,1,.16-.06C65.24,53.11,65.19,53.13,65.11,53.09Zm.09-.35,0,0s0,0,0,0l0,0S65.2,52.73,65.2,52.74Zm-.66-1.5v-.06h0s0,.05,0,.07Zm.11-.47,0,0s0,0,0,0l0,0Zm-.09-.23s0,0,0,0l0,0,0,0Zm-.33-.78a.18.18,0,0,1-.09-.24A.17.17,0,0,1,64.23,49.76Zm1.19,2h0v-.07s0,0,0,0S65.42,51.71,65.42,51.73Zm-.15-.88a.1.1,0,0,1-.13.06c0-.07,0-.12,0-.18A.11.11,0,0,1,65.27,50.85Zm.12-.49h0a.1.1,0,0,1,0-.05h0Zm-.58-1.2a.46.46,0,0,1-.15-.28l.06-.06s0-.09,0-.08,0,.06,0,.09a.05.05,0,0,0,0,0l.1,0a.05.05,0,0,1,0,0C64.89,49,64.82,49.08,64.81,49.16Zm-.4-.93c.1,0,.1.06.08.15S64.39,48.29,64.41,48.23Zm2,3.45c0,.09,0,.09-.13.1h0c0-.05,0-.07,0-.08l.09,0s0-.09,0-.08S66.48,51.65,66.45,51.68Zm-1.71-4.24a.1.1,0,0,1,0,0l0,0,.05,0Zm.22.09,0,0,0,0,0,0S65,47.52,65,47.53Zm1.41,2.53,0,0s0,0,0,0l0,0Zm-1-2.51c-.09,0,0-.06,0-.08s0-.09,0-.11,0-.09,0-.11,0-.1,0-.09,0,.06,0,.09a.08.08,0,0,1,0,.11.07.07,0,0,1,0,.11S65.35,47.56,65.33,47.55Zm-.2-1.06,0,0,0,0,0,0Zm.72,2.06,0,0,0,0s0,0,0,0Zm.7,1.62s0,.09,0,.08,0-.06,0-.09,0-.09,0-.08S66.59,50.14,66.55,50.17ZM66,48.92S66,49,66,49s0-.06,0-.08-.07-.11,0-.17C66.1,48.84,66.1,48.84,66,48.92Zm.26.27h0l0,0h0A.1.1,0,0,1,66.3,49.19Zm.46.41a.5.5,0,0,1-.28.12s0-.08,0-.09.06-.05.07-.09.06,0,.1-.07S66.76,49.53,66.76,49.6Zm-.32-.68h0a.1.1,0,0,1,0,0h0Zm-.62-1.74a.11.11,0,0,1-.07-.16A.11.11,0,0,1,65.82,47.18ZM66.76,49H66.7v0h.06Zm-.42-1.84h0a.1.1,0,0,1,0,0l0,0ZM67,48a.24.24,0,0,1-.12-.23h0s.06,0,.07,0A.58.58,0,0,1,67,48Zm.62.63a.1.1,0,0,1,0,0s0,0,0,0l0,0ZM67,47h0L67,47a.08.08,0,0,1,0,0l0,0S67,47,67,47Zm-.23-.55h0v-.07l0,0Zm-.52-.92a.11.11,0,0,1,.16-.07A.11.11,0,0,1,66.29,45.57Zm.92,1.67,0,0v0l0,0Zm.68,1.51a.36.36,0,0,1,0-.11l0,0s0,0,0,0,0,0,0,0S67.94,48.78,67.89,48.75Zm-.14-.32s0,0,0,0h.06v0Zm-1-2.93h0s0,0,0-.06h0Zm1.31,2.94,0,0v0l0,0ZM68,48.07c0-.08.08-.1.16-.06S68.05,48.1,68,48.07Zm-.71-2.49,0,0V45.5h0Zm.85,1.84,0,0v-.06l0,0S68.11,47.4,68.11,47.42ZM68,45.55s-.12,0-.16-.08.06,0,.09-.07A.1.1,0,0,1,68,45.55Zm0-.26h0l0,0v-.06h0S68,45.27,68,45.29Zm0-.19s-.13,0-.18-.11.07-.2.09-.3.07,0,.08.06,0,.12,0,.19S68,45,68,45.1Zm.85.93a.11.11,0,0,1-.07-.16A.11.11,0,0,1,68.82,46Zm-.67-1.83h0v-.07l0,0S68.15,44.18,68.15,44.2Zm-.1-.69a.1.1,0,0,1,0,0s0,0,0,0l0,0Zm0-.44.12-.17s0,0,.1,0l-.13.16S68.16,43.12,68.09,43.07ZM69,44.5s0,0,0,0l0,.05,0,0Zm.25.9h.06v0h-.06S69.26,45.4,69.27,45.4Zm.25.34-.16-.07.06-.17.16.07Zm-.68-2c0-.08.08-.1.14-.07S68.93,43.8,68.84,43.78Zm.86,1.52,0,0s0,0,0-.06h0Zm-1.25-3.24h0l0,0s0,0,0,0l0,0Zm-.32-.78a.1.1,0,0,1-.07-.15C68.14,41.16,68.16,41.21,68.13,41.28Zm.81,1.41a.07.07,0,0,1,0,.11s0,.09,0,.08,0-.06,0-.09,0-.08,0-.1,0-.1,0-.09S69,42.66,68.94,42.69Zm-.24-.91s0,0,0,0,0,0,0-.06l0,0Zm-.1-1a.11.11,0,0,1,.16-.07A.11.11,0,0,1,68.6,40.77Zm.9.32c.1,0,.1.06.07.15S69.48,41.16,69.5,41.09Zm.62,1.27s0,0,0,0l0-.05,0,0S70.13,42.35,70.12,42.36Zm-.66-1.77c0-.06,0,0,.07,0h0a.17.17,0,0,1,.13.09.36.36,0,0,0,0,.11.11.11,0,0,1-.13.07c0-.05,0-.09,0-.16l0-.08S69.45,40.61,69.46,40.59Zm.7,1.41c-.08,0-.1-.08-.06-.16A.1.1,0,0,1,70.16,42Zm0-.58h-.06s0,0,0,0h.06ZM71,42.49l-.06.19c-.16,0-.17,0-.17-.11l.13,0,.11-.3c.06,0,.09.12.18.14S71.07,42.43,71,42.49Zm-.3-.68a.08.08,0,0,1,0,0l.05,0,0,0Zm-.27-2.49c-.06,0-.06-.06-.08-.09s.06-.09.11-.08.06.06.1.12ZM70.78,36h0V35.9s0,0,0,0Zm2,1.72s0-.09,0-.09,0,.06,0,.09,0,.09,0,.08S72.78,37.72,72.81,37.7Zm.42,1,0-.1s0-.08.06-.09,0-.09,0-.08,0,.06,0,.09a1,1,0,0,1,0,.1s0,.07-.06.08,0,.09,0,.09S73.2,38.74,73.23,38.71Zm-1.8-3.54c.1,0,.1.06.08.15S71.41,35.24,71.43,35.17Zm1.08,3.28,0,0h0l0,0s0,0,0,0Zm-1.7-4s0-.09,0-.08,0,.06,0,.09,0,.09,0,.08S70.78,34.44,70.81,34.41ZM69.49,33l.05,0s0,0,0,0a.1.1,0,0,1,0,0l0,0Zm2.75,6.7h0s.06.07,0,.13-.07-.06-.08-.09A.09.09,0,0,1,72.24,39.69Zm-1-2.15h0a.1.1,0,0,1,0,.05l0,0Zm-.82.05,0,0,0,0a.1.1,0,0,1,0,0ZM71.71,41s0-.09,0-.09,0,.07,0,.09,0,.09,0,.08S71.67,41,71.71,41Zm-3-7a.1.1,0,0,1,0,0,.1.1,0,0,0,0,0l0,0Zm-1.55-1.55h0v.06h0S67.13,32.49,67.13,32.47Zm.93,3c0,.06,0,.13-.08.16s0-.06-.07-.09S68,35.47,68.06,35.5Zm-.8-1.34a.13.13,0,0,1,.09,0l.09,0h0a.11.11,0,0,0,0,.12.34.34,0,0,1,0,.14A.56.56,0,0,1,67.26,34.16Zm0,1.27s0,0,0,0,0,0,0,0l-.05,0A.08.08,0,0,1,67.26,35.43ZM65.81,32.7s0,0,0-.05h0s.05.07,0,.13S65.82,32.73,65.81,32.7ZM65,33s0-.09,0-.09S65,33,65,33s0,.09,0,.08S65,33,65,33Zm-.64-1.2,0,0v0l0-.05Zm.29,1.09h0l0,0,0,0Zm-.29,0,0,0,0,0,0,0S64.37,32.89,64.37,32.88Zm-1.08.26.05,0,0,0h0l0,0Zm-2.35-.84c.08,0,0,.06,0,.09a1.17,1.17,0,0,1,0,.11.1.1,0,0,1,0,0c-.08,0-.15-.06-.23,0l-.06-.12c0-.06,0,0,0,0s.16,0,.23,0S60.92,32.29,60.94,32.3Zm-.61-.9,0,0,0,0s.05.06,0,.12S60.35,31.43,60.33,31.4Zm-.58-1.18s0-.09,0-.08,0,.06,0,.08,0,.09,0,.09S59.72,30.24,59.75,30.22Zm-.48-.62,0,0v.06s0,0,0,0A.13.13,0,0,1,59.27,29.6Zm.11.37s0,0,0,0h0s0,.07,0,.13S59.39,30,59.38,30Zm.13.44.05,0a.08.08,0,0,1,0,0h0l0,0Zm.05.81c.1,0,.1.06.07.15S59.54,31.29,59.56,31.22Zm-.23-.17h0l0,.05h0Zm-1.06-.48a.68.68,0,0,1,0-.12.25.25,0,0,1,.12.24h0C58.3,30.66,58.29,30.66,58.27,30.57Zm.22.58,0,.05h0s0,0,.05-.05Zm-.21-.21s0,0,0,0l0,.05,0,0S58.26,31,58.28,30.94ZM58,30.49l0,.05,0,0-.05,0Zm-.35-.21,0,0a.1.1,0,0,1,0,.05l0,0Zm.21.67c0,.1-.06.1-.15.07A.12.12,0,0,1,57.85,31Zm-.15.39s0,0,0,.05l0,0,0,0Zm-.18-.1s0-.1,0-.09,0,.06,0,.09.07.1,0,.17C57.46,31.32,57.46,31.32,57.52,31.24Zm.26.62s0-.09,0-.09,0,.07,0,.09.07.11,0,.17C57.72,31.94,57.72,31.94,57.78,31.86Zm-1.27-2.75c.06,0,.06.05.07.09s0,0,0,.05l0,0S56.46,29.16,56.51,29.11Zm.65,1.82h0V31h0Zm-.79-.85a.06.06,0,0,1,.05.06,1.72,1.72,0,0,1-.09.19s0-.06,0-.09a.54.54,0,0,1,0-.11S56.36,30.08,56.37,30.08Zm-.28-.24s0,0,0,0l0,0,0,0Zm.29.65,0,0,0,0,0,0Zm.37,1.43s0,0,0,0V32h0l0,0Zm-1.24-2.78.05,0,0,0s0,0,0,0S55.51,29.16,55.51,29.14Zm.64,2.27s0-.06.05-.07a.5.5,0,0,1,.18-.05.47.47,0,0,1-.11.1.25.25,0,0,1-.12,0Zm.12.72.13-.07s0-.09,0-.08,0,.06,0,.09a.22.22,0,0,1-.07.2A.12.12,0,0,1,56.27,32.13Zm-.86-1.8s0,0,0,0,0,0-.06,0l0,0ZM55,29.69s0,0,0-.05l0,0s.05.07,0,.13S55,29.73,55,29.69Zm-.49-.53,0,0s0,0,0,0l0,.05,0,0Zm.14,2,0,0a.08.08,0,0,1,0,0l0,0Zm-.78.33.05,0,0,0,0,0Zm0,.3c0-.05.06-.05.13-.09l0,.13c0,.06-.06.06-.1.08A.11.11,0,0,1,53.83,31.79Zm-.6-1.13s0,0,0,0l0,0,0,0Zm-.65-.83.18.05,0,.09c0,.05-.06.05-.1.07A.17.17,0,0,1,52.58,29.83Zm.1.85,0,0v.06h0A.17.17,0,0,1,52.68,30.68Zm-1.3-2.12s0-.09,0-.08,0,.06,0,.09,0,.09,0,.08S51.35,28.59,51.38,28.56Zm.2,1.8,0-.05,0,0,0,.05,0,0Zm.4.9c.1,0,.1,0,.08.14S52,31.32,52,31.26Zm-1.55-1.55a.14.14,0,0,1,.09,0l.08,0h0l0,0a.08.08,0,0,1,0,0h-.08A.09.09,0,0,1,50.43,29.71Zm.34.67c0,.05.07.1,0,.17-.09-.09-.09-.09,0-.17s0-.09,0-.09S50.8,30.35,50.77,30.38Zm-.31-.13h0s.06,0,.08,0a1.09,1.09,0,0,1,.05.19.4.4,0,0,1-.11-.12A.36.36,0,0,1,50.46,30.25Zm0,.38s0,0,0-.05,0,0,0,0,.05.07,0,.13S50.52,30.66,50.51,30.63Zm.16.22,0,0s0,0,0,0,0,0,0,0Zm-1-2a.08.08,0,0,1,.08,0s0,.06,0,.09a.19.19,0,0,1-.06.07l-.07-.1A.18.18,0,0,1,49.68,28.82Zm-.38.91c-.08,0,0,.09-.11.1s0-.12-.1-.17a.27.27,0,0,1,.24-.1l.06.15.11.05h0l.1.23,0,.08c0,.14.12.24.1.42l-.18-.1c0-.05,0-.1,0-.15s-.06,0-.13-.1,0-.18-.17-.17l.15-.13Zm.45,1.62s.07-.05.13,0-.06.06-.1.07,0,0,0,0S49.74,31.35,49.75,31.35ZM49,29.76s0-.1,0-.09,0,.06,0,.09,0,.09,0,.08S48.92,29.78,49,29.76Zm-.6-.93c.06,0,.06.06.07.09s0,0,0,0,0,0,0,0S48.3,28.89,48.35,28.83Zm-.52.3h0v.07l0,0Zm0,1a.1.1,0,0,1,.05,0l0,0,0,0Zm-.81.07c.1,0,.1.06.08.15S47,30.28,47,30.22Zm-.62-.67,0,0v.06h0A.2.2,0,0,1,46.36,29.55Zm-.24.57h.06a.1.1,0,0,1,0,0s0,0-.07,0Zm-.88.72h0a.17.17,0,0,1,0,.07l0,0ZM45,31.5l0,0s0,0,0,0l0,0Zm-.4-.75a.1.1,0,0,1,.06.16C44.55,30.88,44.53,30.83,44.57,30.75Zm-.15-.24-.16.16c.05,0,0,0,0,0l.15-.16S44.35,30.45,44.42,30.51Zm.17.66,0,0s0,0,0,0,0,0,0,0Zm-.35.19c.08,0,.13,0,.19.05s0,.16,0,.26A.56.56,0,0,1,44.24,31.36Zm-1.5.06,0,0,0,0,0-.05S42.74,31.43,42.74,31.42Zm-.94-.07,0,0s0,0,0,0l0,0Zm-1.62.47s0-.05,0-.07l.08,0c.05.08.16.07.24.13a.5.5,0,0,1-.28.14C40.14,32,40.15,31.89,40.18,31.82Zm1.17.29a.2.2,0,0,1-.05-.19l.15.06s0,.08.06.11a47.09,47.09,0,0,1,7.79-.42c.7,0,1.39.07,2.08.12h0a.1.1,0,0,1,.14,0l0,0c.51,0,1,.1,1.53.15h0s0,0,0,0,0,0,0,0,0,0,0,.05A47.64,47.64,0,0,1,66,35.26v0h0l0,0c1.34.55,2.66,1.15,3.94,1.83l-.58,1.1s0,0,.07,0-.06.06-.09.07h0l-5.54,10.6s0,.07.07.1h0l0,0c0,.08-.06,0-.09,0s-.08,0-.09,0l-.25.48a2.93,2.93,0,0,1,0,.34,2.68,2.68,0,0,1-.07.27v0h0a7.43,7.43,0,0,1-1.2,2.67,11.47,11.47,0,0,1-.86.81l-.1.19c0,.18,0,.37-.08.64a4.28,4.28,0,0,1-.15,1.13.25.25,0,0,0,0,.07l0,0c0,.14-.07.27-.12.41A9.9,9.9,0,0,1,59,59.17a.11.11,0,0,1,.13,0l0,.11.21.09,0,.11.08.18.3.09.11.27-.12.11.05.18-.05.17c-.07,0-.15,0-.19-.11s0-.1,0-.15l-.11-.26-.21.06c-.07,0-.07-.13-.17-.13a.34.34,0,0,0,0-.14.13.13,0,0,1,0-.12l.15-.06c0-.09-.06-.06-.09-.1a.57.57,0,0,1-.08-.26c-.29.37-.58.75-.85,1.14a.15.15,0,0,1,0,.07s-.06,0-.07,0c-.14.21-.27.42-.39.64a5.21,5.21,0,0,1-.7,1s0,0,0,0a3.62,3.62,0,0,1-.2.33L54.38,67v0h0l-.39.73A.41.41,0,0,1,54,68l-.1-.16-.07.13h-.25A5.88,5.88,0,0,1,53,69.14a4.35,4.35,0,0,1-.3,1.14h0v0h0a3.66,3.66,0,0,1-.56.93l-.34.64a.17.17,0,0,0,.18-.07.23.23,0,0,1-.22.19,0,0,0,0,1,0,0l-.45.85h0l-1,2a3.51,3.51,0,0,1-.36.53.1.1,0,0,1,.09,0c0,.07-.07.08-.14.06a2.45,2.45,0,0,1-.63.54.09.09,0,0,1-.12,0,2,2,0,0,1-1,.26s0,0,0,0l-.12,0a.34.34,0,0,1-.09-.08.12.12,0,0,0-.1-.06h0a0,0,0,0,0,0,0,2.42,2.42,0,0,1-1.83-1.49L44.82,72c-.07-.06-.13-.14-.2-.21l0,0,0,0a.08.08,0,0,1,0,0h0a4.94,4.94,0,0,1-.44-.56s0,0,0,0L44,71,44,71a5.34,5.34,0,0,1-.68-1.77,2.39,2.39,0,0,1-.09-.45,1.15,1.15,0,0,0-.3-.41,6,6,0,0,1-.82-1.18l0,.06-.06.06s0,.09,0,.08,0-.06,0-.08a1.08,1.08,0,0,0-.08-.19s-.1,0-.12,0-.08-.07-.1-.12A1.62,1.62,0,0,1,42,67a11.24,11.24,0,0,1-1.4-3.66,6.06,6.06,0,0,0-.16-.61l-.13-.27a3.84,3.84,0,0,1-2.18-3.61l-.07.08c0,.07,0,.12,0,.19s-.26,0-.37-.09l-.08-.17-.1,0s-.08,0-.09-.06-.09,0-.08,0,.06,0,.09,0l.1,0s.07,0,.08.06l.22-.1c0,.1,0,.18,0,.24s.15,0,.23-.07L38,58.59a.1.1,0,0,1,.09-.08l.07,0s0,.07.08.09a4.39,4.39,0,0,1,.07-.61L36.61,54.5l0-.06c-.09-.13-.16-.28-.24-.41s0,0,0,.06-.06-.05-.07-.09,0,0,0,0h0a29.35,29.35,0,0,1-1.73-3.4c-.32-.73-.62-1.5-.89-2.3L31,42.44l-.06,0a0,0,0,0,1,0-.05l-.25-.53,0,.07a.08.08,0,0,1-.09-.07.43.43,0,0,0,0-.05.08.08,0,0,0,0,0h0a.09.09,0,0,1,0-.06l0,0L28,36.05A47.5,47.5,0,0,1,41.35,32.11Zm-3.25,26,0,0,0,0,0,0ZM30.67,43l-.09-.22c.11,0,.09,0,.12.07a.23.23,0,0,0,.11,0l.08.21s.1,0,.09,0-.06,0-.09,0-.09,0-.12-.06a.06.06,0,0,0-.1,0s0,.09,0,.09S30.64,43,30.67,43ZM28,37.45s0,0,0-.1.08,0,.1.09l.21.09c0,.06.07.11.06.19s-.12.06-.18.08-.06-.11-.11-.15,0-.1,0-.18Zm.47,1.06a.18.18,0,0,1,.1.24l-.15-.08C28.43,38.62,28.48,38.57,28.49,38.51Zm1.71,4.61h.07s0,0,0,0h-.06Zm-1.28-2.69a.11.11,0,0,1,.07.16A.11.11,0,0,1,28.92,40.43Zm1.15,3a.1.1,0,0,1,.08.12c0,.05,0,.05-.09.07s-.1-.08-.06-.16l.07,0Zm-.54-1.19s0,0,0,0h0l0-.05Zm-1.79-4.11c0,.09-.15.08-.14.19l-.19-.06A.45.45,0,0,1,27.74,38.13Zm1.61,5.42.27-.11a.11.11,0,0,1,.08.09v0a.49.49,0,0,0-.15.17l-.16-.06,0-.12s-.1,0-.09,0S29.32,43.52,29.35,43.55ZM29,43s0,0,0,0h0s-.05-.07,0-.13S29,43,29,43Zm-.29-.25c.05-.07.09-.1.15-.07S28.83,42.77,28.73,42.75Zm-.81-2.07H28s0,0,0,0H27.9Zm.8,1.87h0a.1.1,0,0,1,0,0l0,0Zm-1.44-3.18a.12.12,0,0,1,.1.12.1.1,0,0,1-.13.06C27.22,39.48,27.3,39.44,27.28,39.37Zm.51,1.77c0,.06-.06.06-.13.1l-.05-.13c0-.06.06-.06.1-.08A.11.11,0,0,1,27.79,41.14Zm-1.3-2.79h.06v0h-.07S26.48,38.35,26.49,38.35Zm1.12,3.2,0-.22c.09,0,.09.07.11.1s0,.12-.09.16S27.6,41.53,27.61,41.55Zm-1.3-2.23,0-.21c.11,0,.09.13.18.2l-.15.07C26.32,39.37,26.32,39.32,26.31,39.32Zm1,2.6.14,0c.08,0,.07-.1.13-.15h.11l-.07.16-.24.11C27.34,42,27.34,42,27.33,41.92ZM27.72,43l0,0s0,0,0,0,0,0-.05,0Zm-.89-1.92.05,0s0,0,0,0l0-.05S26.82,41.13,26.83,41.12Zm2.92,7.15,0,0h0l0-.05Zm-1.62-3.58a.1.1,0,0,1-.07-.15C28.14,44.57,28.16,44.62,28.13,44.69Zm-.68-1.63.05,0,0,0,0,0S27.44,43.07,27.45,43.06Zm-.72-1.24.17,0c0,.07.05.11,0,.12l-.17,0C26.73,41.87,26.71,41.83,26.73,41.82Z"/><polygon class="cls-2" points="40 68.75 40 68.75 40 68.75 40 68.75"/><polygon class="cls-2" points="58.93 65.76 58.93 65.76 58.93 65.76 58.93 65.76"/><path class="cls-2" d="M27.33,30.28c1.78-.75,3.32-2.17,5.16-2.72s3.86-.49,5.76-.84a52,52,0,0,1,5.7-.89c1.91-.14,3.83.2,5.77.25,1.73.06,3.47-.25,5.18-.13v0l0,0c.19,0,.39,0,.58,0a14.6,14.6,0,0,1,3,.85s0,0,.05-.06.06,0,.1,0h0a.41.41,0,0,0,0,.08v0a23.39,23.39,0,0,0,2.41.79l.74.18v-.06l.06.07,1.8.46c-.07-.09-.07-.09,0-.17s0-.09,0-.09,0,.06,0,.09.07.1,0,.17c1,.26,2,.54,2.93.9a53.59,53.59,0,0,1,5.49,1.84c2.11,1,2-1.18,3-3.3.71-1.43,1.74-2.37,1.67-3.16a.09.09,0,0,1-.13,0h0l.06-.15s0,0,.06,0c-.07-.34-.35-.65-1-1-1.6-.79-3.34-1.25-5-1.9s-3.16-1.82-4.87-2.32-3.47-.95-5.22-1.31-3.55-.6-5.33-.8-3.58,0-5.37,0-3.57.25-5.34.35-3.61-.19-5.37.06S35.7,18,34,18.39s-3.49.89-5.19,1.44S25.51,21.32,23.86,22c-2.18.91.22,1.78,1.13,4S25.16,31.19,27.33,30.28ZM75.15,23.7s0,0,0,0,0,0,0,0l0,0,0,0ZM76,25.86a.11.11,0,0,1,.07.16A.11.11,0,0,1,76,25.86Zm-.56-.68,0,0s0,0,0,0l0,0Zm-.12.08.07.08-.11.16-.08-.08ZM74.7,25h.06l0,0h-.06S74.69,25,74.7,25Zm.38,1.1c.07,0,.09.08.07.15S75.06,26.15,75.08,26.06Zm-1-2.23,0,.05a.1.1,0,0,0,0,0l0,0Zm0,.19,0,0s0,0,0,.06l0,0Zm0,.2h0a.1.1,0,0,1,0,.05l0,0Zm.39,1h.06v0h-.07S74.44,25.25,74.45,25.24Zm.28.74s0,0,0,0,0,0,0,0,0,.07,0,.13S74.74,26,74.73,26Zm.37.9s0-.09,0-.09,0,.06,0,.09.07.1,0,.17C75,27,75,27,75.1,26.88Zm-2-3.21s0,.09,0,.09,0-.06,0-.09,0-.09,0-.08S73.16,23.65,73.13,23.67Zm-.31-.57s0,0,.05-.05,0-.09,0-.09,0,.06,0,.09a2.29,2.29,0,0,0,.1.23l.07,0s0-.09,0-.09,0,.07,0,.09a.08.08,0,0,1,0,.11s0,.09,0,.09,0-.07,0-.09l0-.08s-.1.07-.16,0S72.86,23.17,72.82,23.1Zm.25,1.42,0,0s0,0,0,0l0,0Zm-.15,1,0,0v0a.1.1,0,0,1,0,0S72.92,25.51,72.92,25.49Zm-.85-1.84s0,0,.05.05l0,0,0,0Zm.83,2.05H73s0,0,0,0h-.06Zm1,3.15,0,0s0,0,0,0l0,0S73.85,28.87,73.86,28.85ZM71.36,23l0,0s0,0,0,0l0,0Zm2.08,5.26a.1.1,0,0,1,0,0,.1.1,0,0,0,0,0l0,0Zm-1-2.22s0-.09,0-.08,0,.06,0,.08,0,.09,0,.09S72.35,26.11,72.39,26.08ZM73.55,29l0,.05s0,0,0,0h0a.1.1,0,0,1,0,0Zm-2.68-6,0,0,0,0-.05,0A.08.08,0,0,1,70.87,23Zm1.61,3.9,0,0v.06h0Zm.13.34h.06l0,0h-.06S72.6,27.2,72.61,27.2ZM73.7,30q.12,0,.06.15A.1.1,0,0,1,73.7,30Zm-1-1.76s0-.09,0-.09,0,.06,0,.09,0,.09,0,.08S72.62,28.28,72.65,28.26ZM72,27.17l0,0,0,0,0-.05S72,27.18,72,27.17Zm.89,2.37,0,0s0,0,0,0l-.05,0Zm-2.6-5.06.14,0a.22.22,0,0,1,.09.07s.09,0,.08,0-.06,0-.08,0l-.11.05a.1.1,0,0,1-.08-.05A.69.69,0,0,0,70.26,24.48Zm1.23,3.69,0-.09h0l.11,0c0-.16.14-.21.18-.34l.15.11s0,0-.07,0l-.09,0,0,.11-.12,0a.14.14,0,0,1,0,.11.18.18,0,0,0,0,.1l-.11,0A.12.12,0,0,1,71.49,28.17Zm-3.62-7.79h.06s0,0,0,0h-.06Zm0,.17,0,0,0,0,0,0S67.85,20.57,67.86,20.55Zm1,2.92h0a.1.1,0,0,1,0,.05l0,0Zm.68,1.89,0,.05s0,0,0,0l0,0Zm-2.13-4.69h0s0,.05,0,.07l0,0Zm3.22,7.82h0s.06,0,.07.05a.88.88,0,0,1,.06.18.23.23,0,0,1-.11-.11A.25.25,0,0,1,70.58,28.49Zm-1.78-3,0,0s0,0,0,0l0,0Zm-2.63,2.37c0,.07,0,.14.08.22l-.1.06a.11.11,0,0,1-.08-.09.23.23,0,0,1,.09-.19s0-.1,0-.09S66.2,27.81,66.17,27.84Zm1.07-3.92,0,0,0,0,.05,0S67.25,23.9,67.24,23.92Zm1,2.23a.11.11,0,0,1-.07-.16A.11.11,0,0,1,68.26,26.15Zm-.62-1.48a.11.11,0,0,1-.06-.16C67.66,24.54,67.68,24.59,67.64,24.67Zm.33,0s0,0,0-.05,0,0,0,0,0,.07,0,.12S68,24.71,68,24.67Zm-1.16-1.78H67c0,.11-.08.2-.13.32q-.06-.11-.06-.09ZM67.06,25c-.08,0-.08,0-.12-.23A.24.24,0,0,1,67.06,25Zm-.28-.66a.3.3,0,0,1-.11-.12.22.22,0,0,1,0-.12h0l0,0S66.74,24.17,66.78,24.32Zm-.64-1.41s.09,0,.08,0-.06,0-.08,0-.09,0-.09,0S66.11,22.88,66.14,22.91Zm-.48.29,0,0v0l0,0S65.66,23.21,65.66,23.2ZM67.21,28l.05,0s0,0,0,0h0l0,0Zm-2.66-6a.32.32,0,0,1,.1.11.17.17,0,0,1,0,.12h0a.12.12,0,0,1-.07,0A.89.89,0,0,1,64.55,22.08Zm.88,2.64s0,0,0,0h0s0,.07,0,.13S65.44,24.75,65.43,24.72Zm-.13.91,0,0a.13.13,0,0,1,0,.06h0Zm.48,1.69c0-.12,0-.28.1-.37H66a1.28,1.28,0,0,1,.14.34l0,0L66,27.19l0,.12-.08,0C65.76,27.31,65.76,27.36,65.78,27.32Zm-2.17-4.63c.1,0,.1.06.08.15S63.59,22.75,63.61,22.69Zm1.4,3.8,0,0v0a.1.1,0,0,1,0,0A.1.1,0,0,0,65,26.49Zm-1.47-3s0,0,0,0,0,0,0,0l0,.05,0,0Zm.9,2.51,0,0v0l0,0S64.44,26,64.44,26ZM63,22.87s0,0,0,0l0,.05,0,0Zm.67,2.53s0,0,0,0a.13.13,0,0,1,0,.06h0Zm0,.19s0,0,0,0,0,0,0,0l-.05,0Zm-.86-1.19s0,0,0,0,0,0,0,0a.1.1,0,0,1-.05,0Zm-.17.08h.07s0,0,0,0H62.6Zm-1,2h0l.16-.19c.08,0,.06.11.11.17l-.09.18-.18-.15v0Zm-.93-1.3h0a.1.1,0,0,1,0,.05h0A.1.1,0,0,1,60.66,25.2Zm-.58-.95h0s0,0,0,0h0Zm-.23.1s0,0,0,0l0,.05,0,0Zm.35,1.76c.07,0,.07.06.08.09a.07.07,0,0,1,0,.05s0,0,0,0S60.15,26.17,60.2,26.11Zm-1.05.8.09-.22.2-.08,0,.27c-.06.08-.13,0-.23,0s0,.08,0,.07,0,0,0,0ZM57.4,24.76c0-.06.06-.1,0-.16l.08,0a.21.21,0,0,1-.06.3Zm0,.11s0,.09,0,.08S57.41,24.89,57.44,24.87Zm.14.41,0,0,0,0s0,0,0,0Zm-1.1.64,0,0,0,0,0,0Zm-.58-.22H56s0,0,0,0h-.07Z"/><path class="cls-2" d="M57.24,35.1h0"/><path class="cls-2" d="M34.61,35.07h0"/><path class="cls-2" d="M61.6,26.52v0"/><path class="cls-2" d="M55.7,69.47h0"/><path class="cls-2" d="M62.61,72.1h0"/><path class="cls-2" d="M39.39,35.14v0"/><path class="cls-2" d="M50.75,65.76h0"/><path class="cls-2" d="M32.85,63.49a.07.07,0,0,1-.11-.05"/><path class="cls-2" d="M48.19,76.88c0,.06.05.07.11.05"/><path class="cls-2" d="M45.4,58c-.06,0-.09,0-.11-.05"/><path class="cls-2" d="M65.43,47.25c-.05,0-.07,0,0,.11"/><path class="cls-2" d="M65.34,47.47a.07.07,0,0,0,0-.11"/><path class="cls-2" d="M71.56,21.21a.08.08,0,0,0,0,.11"/><path class="cls-2" d="M72.29,21a.07.07,0,0,1,0,.11"/><path class="cls-2" d="M33.68,55.56a.07.07,0,0,0,.11,0"/><path class="cls-2" d="M40.17,65.49a.08.08,0,0,1-.11,0"/><path class="cls-2" d="M46.81,65.84a.07.07,0,0,0,0,.11"/><path class="cls-2" d="M46.72,66.06a.08.08,0,0,0,.05-.11"/><path class="cls-2" d="M73.69,33.41a.07.07,0,0,1,0,.11"/><path class="cls-2" d="M48.87,64.63a.08.08,0,0,1-.11,0"/><path class="cls-2" d="M46.17,66.93a.07.07,0,0,0-.11,0"/><path class="cls-2" d="M68.43,57.34a.07.07,0,0,0-.05.11"/><path class="cls-2" d="M29.51,58.29a.07.07,0,0,0,.11.05"/><path class="cls-2" d="M29.51,58.29h0"/><path class="cls-2" d="M62.7,35.58a.07.07,0,0,0,0-.11"/><path class="cls-2" d="M30.37,48.89a.07.07,0,0,1-.11,0"/><path class="cls-2" d="M48.59,74.08h0"/><path class="cls-2" d="M48.69,74.12a.07.07,0,0,1-.1,0"/><path class="cls-2" d="M68.94,42.69c-.06,0-.07.05,0,.11"/><path class="cls-2" d="M51.44,59.62h0"/><path class="cls-2" d="M51.44,59.62s0,0,0,0"/><path class="cls-2" d="M51.38,59.59h0"/><path class="cls-2" d="M51.38,59.59s0,0,0,0"/><path class="cls-2" d="M61.58,42.81a.07.07,0,0,0,0,.11"/><path class="cls-2" d="M45.78,60.7a.08.08,0,0,0-.12-.05"/><path class="cls-2" d="M50.35,47.46a.07.07,0,0,0-.05.11"/></g></g></svg>